<svg width="56" height="56" viewBox="0 0 56 56" fill="none" xmlns="http://www.w3.org/2000/svg">
<path fill-rule="evenodd" clip-rule="evenodd" d="M4.66406 14.0007C4.66406 16.578 6.7534 18.6673 9.33073 18.6673C11.9081 18.6673 13.9974 16.578 13.9974 14.0007C13.9974 11.4233 11.9081 9.33398 9.33073 9.33398C6.7534 9.33398 4.66406 11.4233 4.66406 14.0007ZM51.3346 11.666V16.3327H18.668V11.666H51.3346ZM51.3346 30.3337V25.667H18.668V30.3337H51.3346ZM51.3346 44.3346V39.668H18.668V44.3346H51.3346ZM4.66406 41.9997C4.66406 44.577 6.7534 46.6663 9.33073 46.6663C11.9081 46.6663 13.9974 44.577 13.9974 41.9997C13.9974 39.4223 11.9081 37.333 9.33073 37.333C6.7534 37.333 4.66406 39.4223 4.66406 41.9997ZM9.33073 32.6683C6.7534 32.6683 4.66406 30.579 4.66406 28.0016C4.66406 25.4243 6.7534 23.335 9.33073 23.335C11.9081 23.335 13.9974 25.4243 13.9974 28.0016C13.9974 30.579 11.9081 32.6683 9.33073 32.6683Z" fill="#FFA800"/>
</svg>
