<svg width="159" height="170" viewBox="0 0 159 170" fill="none" xmlns="http://www.w3.org/2000/svg">
<path d="M91.4718 6.74829C89.8043 7.79902 88.8389 9.63779 88.5756 11.5641C88.3123 13.4905 88.7511 15.4168 89.541 17.2556C90.2431 18.9192 91.2962 20.4953 91.6473 22.2465C92.0861 24.4355 91.384 26.7121 90.4186 28.726C89.4532 30.7399 88.2246 32.6662 87.5225 34.7677C86.8204 36.8691 86.7326 39.3208 87.8735 41.2471C88.9267 42.9983 90.9452 44.0491 91.5595 45.9754C91.9983 47.3764 91.5595 48.9525 91.384 50.441C91.2962 51.9295 91.735 53.7683 93.1392 54.2061C92.2616 53.2429 92.9637 51.6668 94.0169 50.9664C95.07 50.2659 96.3865 50.0907 97.4396 49.3027C98.8438 48.3395 99.5459 46.5008 100.072 44.8371C99.4581 47.6391 100.687 50.7037 103.056 52.3673C104.987 53.6807 107.357 54.031 109.639 54.2937C108.41 53.418 107.006 52.1922 107.269 50.7037C107.532 49.2151 109.288 48.5147 110.779 48.0769C113.325 47.2888 115.87 46.1505 117.888 44.3993C119.907 42.6481 121.399 40.1088 121.574 37.482C121.75 34.4174 120.258 31.4404 118.678 28.9011L91.4718 6.74829Z" fill="black"/>
<path d="M91.0329 6.57315C93.8413 2.80805 98.5805 0.96928 103.144 0.356356C104.461 0.181235 105.777 0.0936743 107.093 0.443916C109.112 0.96928 110.604 0.794159 111.833 2.45781C112.886 3.85878 113.763 5.34731 115.255 6.31047C117.537 7.799 120.521 7.3612 123.154 7.799C126.401 8.32436 129.473 11.9143 131.404 14.6287C133.247 17.3431 133.949 20.8455 133.071 24.0853C132.632 25.5738 131.93 27.0623 131.404 28.5508C130.965 30.0394 130.789 31.7906 131.579 33.1916C132.808 35.293 135.616 35.8184 138.074 36.0811C136.231 36.8691 134.212 37.3069 132.193 37.1318C130.175 36.9567 128.244 35.9935 126.928 34.4174C125.524 32.6662 125.085 30.3896 124.47 28.2882C123.856 26.1867 122.803 23.9101 120.784 23.0345C120.521 22.947 120.258 22.7719 119.907 22.8594C119.468 22.8594 119.205 23.2097 118.854 23.4723C118.064 24.3479 117.362 25.3111 116.572 26.1867C115.782 27.0623 114.729 27.7628 113.5 27.7628C112.359 27.7628 111.306 27.0623 110.428 26.2743C109.639 25.4862 108.936 24.5231 108.147 23.6475C107.269 22.7719 106.128 22.0714 104.899 21.6336C103.671 21.1958 102.266 21.1082 101.038 20.6704C97.1763 19.5321 94.1924 15.767 93.8413 11.7392C93.7535 10.9512 93.7535 10.0756 93.227 9.46265C92.8759 9.11241 92.2616 8.93729 91.8228 8.76217C91.384 8.58705 90.7696 8.41192 90.5063 7.88656C90.2431 7.44876 90.4186 6.66071 90.9451 6.57315H91.0329Z" fill="black"/>
<path d="M127.893 146.933C127.63 148.596 127.367 150.26 127.103 151.836C126.752 153.762 126.489 155.776 125.611 157.528C124.646 159.541 122.891 161.118 121.135 162.431C118.766 164.182 116.221 165.583 113.412 166.546C114.378 167.597 115.957 167.772 117.449 167.772C122.452 167.947 127.454 167.422 132.369 166.459C132.808 166.371 133.247 166.284 133.598 166.021C134.212 165.583 134.3 164.707 134.388 163.919C135.002 157.703 135.616 151.486 136.143 145.269C133.861 145.532 131.579 145.619 129.297 145.532L127.893 146.933Z" fill="black"/>
<path d="M143.164 145.357C143.778 146.933 144.392 148.421 145.007 149.997C145.709 151.836 146.499 153.675 146.586 155.601C146.762 157.79 146.148 160.067 145.27 162.081C144.129 164.795 142.637 167.334 140.794 169.611C142.198 170.049 143.603 169.348 144.919 168.648C149.219 166.196 153.344 163.219 156.942 159.804C157.294 159.542 157.557 159.191 157.732 158.753C157.996 158.053 157.645 157.265 157.381 156.564C154.748 150.873 152.028 145.269 149.219 139.665C147.376 141.066 145.446 142.292 143.515 143.43L143.164 145.357Z" fill="black"/>
<path d="M129.999 68.9164C127.718 74.9581 122.627 91.2443 121.925 97.6362C121.662 99.7377 121.574 101.839 121.662 103.941C122.013 109.895 124.383 115.411 126.752 120.84C130.877 130.296 135.002 139.84 140.794 148.421C141.145 148.947 141.584 149.56 142.198 149.735C142.725 149.91 143.339 149.91 143.866 149.822C146.762 149.297 149.395 147.721 151.238 145.357C151.501 145.006 151.764 144.569 151.852 144.131C151.852 143.693 151.677 143.255 151.501 142.905C147.025 133.886 142.549 124.78 138.074 115.761C137.81 115.323 137.635 114.798 137.635 114.273C137.635 113.747 137.898 113.222 138.249 112.784C140.882 108.319 143.515 103.853 146.06 99.2999C147.376 96.8482 148.781 94.3965 149.746 91.8572C151.413 87.4792 152.028 82.7509 152.554 78.1102C153.256 71.4556 153.607 64.1881 149.658 58.8469C144.48 63.3125 138.776 67.1652 132.808 70.3174L129.999 68.9164Z" fill="#3363D1"/>
<path d="M129.297 65.6765C128.507 69.179 130.35 69.5292 130.087 73.557C129.473 81.2623 127.103 92.9954 126.489 98.0739C124.821 112.434 128.683 127.056 126.313 141.241C125.962 143.255 125.611 145.532 126.928 147.02C127.718 147.983 129.034 148.334 130.263 148.509C131.93 148.684 133.598 148.596 135.265 148.159C135.88 147.983 136.494 147.808 136.845 147.371C137.196 146.933 137.284 146.407 137.371 145.97C139.39 134.236 141.409 122.416 140.619 110.595C140.619 109.982 140.531 109.282 140.794 108.669C141.057 108.056 141.496 107.53 142.023 107.093C148.956 100.263 154.134 91.5945 156.942 82.2255C157.732 79.4235 158.347 76.534 157.908 73.7321C157.645 71.7182 156.767 69.7919 155.977 67.8656C154.485 64.4507 152.203 55.6946 150.711 52.2798C143.339 56.9205 136.669 61.1234 129.297 65.6765Z" fill="#5D8EFF"/>
<path d="M98.9315 32.1408C96.2109 33.7169 93.4903 35.3805 90.7696 36.9566C89.9798 37.482 89.1022 37.9198 88.2245 38.0949C87.3469 38.27 86.4693 38.1825 85.5039 38.1825C81.6424 38.0073 77.693 38.7078 74.007 40.1088C72.164 40.8093 70.4965 41.6849 68.6535 42.3854C66.1084 43.3485 63.3878 43.7863 60.6672 43.8739C59.263 43.8739 52.5053 41.072 50.9255 42.4729C50.6623 42.648 55.6647 48.6022 57.2444 47.7266C57.5955 49.4778 59.5262 50.7036 61.1937 50.3534C62.6857 50.0907 63.8266 48.8648 65.2308 48.427C65.9329 48.2519 66.635 48.2519 67.4249 48.3395C74.007 48.6022 80.8525 48.8648 86.7326 46.0629C87.2591 45.8002 87.8735 45.45 88.4878 45.2749C89.1022 45.0997 89.8043 45.0122 90.4186 44.9246C95.7721 44.2241 100.687 41.6849 105.514 39.1456C103.758 36.4313 101.389 33.9796 98.756 32.0532L98.9315 32.1408Z" fill="#FED5B7"/>
<path d="M111.569 25.6613C106.391 27.4125 101.389 29.6891 96.6497 32.4035C99.2825 34.4174 102.179 39.671 103.934 42.5605C104.373 43.3486 107.532 41.1596 108.849 41.1596C110.867 41.1596 112.184 43.261 112.535 45.1873C112.886 47.1137 112.886 49.3027 114.027 50.8788C115.431 52.8927 118.151 53.5056 120.17 55.0817C121.662 56.3075 122.715 57.9712 123.593 59.7224C125.172 62.5243 126.752 65.2387 128.244 68.0406C131.228 66.8148 134.475 66.9023 137.547 66.0267C143.164 64.3631 147.289 59.7224 151.15 55.2568C151.589 54.819 151.94 54.2936 152.028 53.6807C152.028 53.2429 151.852 52.7175 151.589 52.3673C150.272 49.6529 149.658 46.5883 148.605 43.6988C145.007 33.1915 136.055 24.6982 125.348 21.7211C124.032 21.3709 122.715 21.0206 121.311 21.1957C119.994 21.3709 118.766 21.9838 117.625 22.5967C115.957 23.4723 114.202 24.3479 112.535 25.136L111.569 25.6613Z" fill="#C23F37"/>
<mask id="mask0_973_708" style="mask-type:luminance" maskUnits="userSpaceOnUse" x="96" y="21" width="57" height="48">
<path d="M111.569 25.6613C106.391 27.4125 101.389 29.6891 96.6497 32.4035C99.2825 34.4174 102.179 39.671 103.934 42.5605C104.373 43.3486 107.532 41.1596 108.849 41.1596C110.867 41.1596 112.184 43.261 112.535 45.1873C112.886 47.1137 112.886 49.3027 114.027 50.8788C115.431 52.8927 118.151 53.5056 120.17 55.0817C121.662 56.3075 122.715 57.9712 123.593 59.7224C125.172 62.5243 126.752 65.2387 128.244 68.0406C131.228 66.8148 134.475 66.9023 137.547 66.0267C143.164 64.3631 147.289 59.7224 151.15 55.2568C151.589 54.819 151.94 54.2936 152.028 53.6807C152.028 53.2429 151.852 52.7175 151.589 52.3673C150.272 49.6529 149.658 46.5883 148.605 43.6988C145.007 33.1915 136.055 24.6982 125.348 21.7211C124.032 21.3709 122.715 21.0206 121.311 21.1957C119.994 21.3709 118.766 21.9838 117.625 22.5967C115.957 23.4723 114.202 24.3479 112.535 25.136L111.569 25.6613Z" fill="white"/>
</mask>
<g mask="url(#mask0_973_708)">
<path d="M128.332 18.3937L127.454 20.5827C127.279 21.0205 127.191 21.4583 127.279 21.8961L127.718 24.2602C128.069 26.099 126.226 27.5875 124.47 26.8871L122.276 26.0115C121.837 25.8363 121.399 25.7488 120.96 25.8363L118.59 26.2741C116.747 26.6244 115.255 24.7856 115.957 23.0344L116.835 20.8454C117.011 20.4076 117.098 19.9698 117.011 19.532L116.572 17.1678C116.221 15.3291 118.064 13.8405 119.819 14.541L122.013 15.4166C122.452 15.5918 122.891 15.6793 123.329 15.5918L125.699 15.154C127.542 14.8037 129.034 16.6425 128.332 18.3937Z" fill="#EA7D7A"/>
<path d="M123.417 22.334C122.54 23.0345 121.223 22.9469 120.521 22.0713C119.819 21.1957 119.907 19.8823 120.784 19.1818C121.662 18.4813 122.978 18.5689 123.681 19.4445C124.383 20.3201 124.295 21.6335 123.417 22.334Z" fill="white"/>
</g>
<mask id="mask1_973_708" style="mask-type:luminance" maskUnits="userSpaceOnUse" x="96" y="21" width="57" height="48">
<path d="M111.569 25.6613C106.391 27.4125 101.389 29.6891 96.6497 32.4035C99.2825 34.4174 102.179 39.671 103.934 42.5605C104.373 43.3486 107.532 41.1596 108.849 41.1596C110.867 41.1596 112.184 43.261 112.535 45.1873C112.886 47.1137 112.886 49.3027 114.027 50.8788C115.431 52.8927 118.151 53.5056 120.17 55.0817C121.662 56.3075 122.715 57.9712 123.593 59.7224C125.172 62.5243 126.752 65.2387 128.244 68.0406C131.228 66.8148 134.475 66.9023 137.547 66.0267C143.164 64.3631 147.289 59.7224 151.15 55.2568C151.589 54.819 151.94 54.2936 152.028 53.6807C152.028 53.2429 151.852 52.7175 151.589 52.3673C150.272 49.6529 149.658 46.5883 148.605 43.6988C145.007 33.1915 136.055 24.6982 125.348 21.7211C124.032 21.3709 122.715 21.0206 121.311 21.1957C119.994 21.3709 118.766 21.9838 117.625 22.5967C115.957 23.4723 114.202 24.3479 112.535 25.136L111.569 25.6613Z" fill="white"/>
</mask>
<g mask="url(#mask1_973_708)">
<path d="M150.272 27.7628L149.395 29.9518C149.219 30.3897 149.132 30.8275 149.219 31.2653L149.658 33.6294C150.009 35.4682 148.166 36.9567 146.411 36.2562L144.217 35.3806C143.778 35.2055 143.339 35.1179 142.9 35.2055L140.531 35.6433C138.688 35.9935 137.196 34.1548 137.898 32.4035L138.776 30.2145C138.951 29.7767 139.039 29.3389 138.951 28.9011L138.512 26.537C138.161 24.6982 140.004 23.2097 141.76 23.9102L143.954 24.7858C144.392 24.9609 144.831 25.0485 145.27 24.9609L147.64 24.5231C149.483 24.0853 150.975 26.0116 150.272 27.7628Z" fill="#EA7D7A"/>
<path d="M145.358 31.7032C144.48 32.4036 143.164 32.3161 142.462 31.4405C141.76 30.5649 141.847 29.2515 142.725 28.551C143.603 27.8505 144.919 27.9381 145.621 28.8137C146.323 29.6893 146.235 30.9151 145.358 31.7032Z" fill="white"/>
</g>
<mask id="mask2_973_708" style="mask-type:luminance" maskUnits="userSpaceOnUse" x="96" y="21" width="57" height="48">
<path d="M111.569 25.6613C106.391 27.4125 101.389 29.6891 96.6497 32.4035C99.2825 34.4174 102.179 39.671 103.934 42.5605C104.373 43.3486 107.532 41.1596 108.849 41.1596C110.867 41.1596 112.184 43.261 112.535 45.1873C112.886 47.1137 112.886 49.3027 114.027 50.8788C115.431 52.8927 118.151 53.5056 120.17 55.0817C121.662 56.3075 122.715 57.9712 123.593 59.7224C125.172 62.5243 126.752 65.2387 128.244 68.0406C131.228 66.8148 134.475 66.9023 137.547 66.0267C143.164 64.3631 147.289 59.7224 151.15 55.2568C151.589 54.819 151.94 54.2936 152.028 53.6807C152.028 53.2429 151.852 52.7175 151.589 52.3673C150.272 49.6529 149.658 46.5883 148.605 43.6988C145.007 33.1915 136.055 24.6982 125.348 21.7211C124.032 21.3709 122.715 21.0206 121.311 21.1957C119.994 21.3709 118.766 21.9838 117.625 22.5967C115.957 23.4723 114.202 24.3479 112.535 25.136L111.569 25.6613Z" fill="white"/>
</mask>
<g mask="url(#mask2_973_708)">
<path d="M137.196 42.8232L136.318 45.0122C136.143 45.45 136.055 45.8878 136.143 46.3256L136.581 48.6898C136.933 50.5285 135.09 52.0171 133.334 51.3166L131.14 50.441C130.701 50.2659 130.263 50.1783 129.824 50.2659L127.366 50.7912C125.523 51.1415 124.031 49.3027 124.734 47.5515L125.611 45.3625C125.787 44.9247 125.874 44.4869 125.787 44.0491L125.348 41.6849C124.997 39.8462 126.84 38.3576 128.595 39.0581L130.789 39.9337C131.228 40.1088 131.667 40.1964 132.106 40.1088L134.475 39.671C136.406 39.2332 137.898 41.072 137.196 42.8232Z" fill="#EA7D7A"/>
</g>
<mask id="mask3_973_708" style="mask-type:luminance" maskUnits="userSpaceOnUse" x="96" y="21" width="57" height="48">
<path d="M111.569 25.6613C106.391 27.4125 101.389 29.6891 96.6497 32.4035C99.2825 34.4174 102.179 39.671 103.934 42.5605C104.373 43.3486 107.532 41.1596 108.849 41.1596C110.867 41.1596 112.184 43.261 112.535 45.1873C112.886 47.1137 112.886 49.3027 114.027 50.8788C115.431 52.8927 118.151 53.5056 120.17 55.0817C121.662 56.3075 122.715 57.9712 123.593 59.7224C125.172 62.5243 126.752 65.2387 128.244 68.0406C131.228 66.8148 134.475 66.9023 137.547 66.0267C143.164 64.3631 147.289 59.7224 151.15 55.2568C151.589 54.819 151.94 54.2936 152.028 53.6807C152.028 53.2429 151.852 52.7175 151.589 52.3673C150.272 49.6529 149.658 46.5883 148.605 43.6988C145.007 33.1915 136.055 24.6982 125.348 21.7211C124.032 21.3709 122.715 21.0206 121.311 21.1957C119.994 21.3709 118.766 21.9838 117.625 22.5967C115.957 23.4723 114.202 24.3479 112.535 25.136L111.569 25.6613Z" fill="white"/>
</mask>
<g mask="url(#mask3_973_708)">
<path d="M109.99 24.2604L109.112 26.4494C108.936 26.8872 108.849 27.325 108.936 27.7628L109.375 30.1269C109.726 31.9657 107.883 33.4542 106.128 32.7538L103.934 31.8782C103.495 31.703 103.056 31.6155 102.618 31.703L100.248 32.1408C98.405 32.4911 96.913 30.6523 97.6151 28.9011L98.4927 26.7121C98.6683 26.2743 98.756 25.8365 98.6683 25.3987L98.2294 23.0345C97.8784 21.1958 99.7214 19.7072 101.477 20.4077L103.671 21.2833C104.11 21.4585 104.548 21.546 104.987 21.4585L107.357 21.0207C109.2 20.6704 110.692 22.5092 109.99 24.2604Z" fill="#EA7D7A"/>
<path d="M105.075 28.2007C104.197 28.9012 102.881 28.8136 102.179 27.938C101.477 27.0624 101.564 25.749 102.442 25.0485C103.32 24.348 104.636 24.4356 105.338 25.3112C106.04 26.1868 105.953 27.5002 105.075 28.2007Z" fill="white"/>
</g>
<mask id="mask4_973_708" style="mask-type:luminance" maskUnits="userSpaceOnUse" x="96" y="21" width="57" height="48">
<path d="M111.569 25.6613C106.391 27.4125 101.389 29.6891 96.6497 32.4035C99.2825 34.4174 102.179 39.671 103.934 42.5605C104.373 43.3486 107.532 41.1596 108.849 41.1596C110.867 41.1596 112.184 43.261 112.535 45.1873C112.886 47.1137 112.886 49.3027 114.027 50.8788C115.431 52.8927 118.151 53.5056 120.17 55.0817C121.662 56.3075 122.715 57.9712 123.593 59.7224C125.172 62.5243 126.752 65.2387 128.244 68.0406C131.228 66.8148 134.475 66.9023 137.547 66.0267C143.164 64.3631 147.289 59.7224 151.15 55.2568C151.589 54.819 151.94 54.2936 152.028 53.6807C152.028 53.2429 151.852 52.7175 151.589 52.3673C150.272 49.6529 149.658 46.5883 148.605 43.6988C145.007 33.1915 136.055 24.6982 125.348 21.7211C124.032 21.3709 122.715 21.0206 121.311 21.1957C119.994 21.3709 118.766 21.9838 117.625 22.5967C115.957 23.4723 114.202 24.3479 112.535 25.136L111.569 25.6613Z" fill="white"/>
</mask>
<g mask="url(#mask4_973_708)">
<path d="M151.326 58.0587L150.448 60.2477C150.273 60.6855 150.185 61.1234 150.273 61.5612L150.711 63.9253C151.062 65.7641 149.219 67.2526 147.464 66.5521L145.27 65.6765C144.831 65.5014 144.392 65.4138 143.954 65.5014L141.584 65.9392C139.741 66.2894 138.249 64.4506 138.951 62.6994L139.829 60.5104C140.004 60.0726 140.092 59.6348 140.004 59.197L139.565 56.8329C139.214 54.9941 141.057 53.5056 142.813 54.2061L145.007 55.0817C145.446 55.2568 145.884 55.3444 146.323 55.2568L148.693 54.819C150.536 54.3812 152.028 56.3075 151.326 58.0587Z" fill="#EA7D7A"/>
<path d="M146.323 61.9114C145.446 62.6119 144.129 62.5243 143.427 61.6487C142.725 60.7731 142.813 59.4597 143.69 58.7592C144.568 58.0587 145.884 58.1463 146.586 59.0219C147.376 59.9851 147.201 61.2109 146.323 61.9114Z" fill="white"/>
</g>
<mask id="mask5_973_708" style="mask-type:luminance" maskUnits="userSpaceOnUse" x="96" y="21" width="57" height="48">
<path d="M111.569 25.6613C106.391 27.4125 101.389 29.6891 96.6497 32.4035C99.2825 34.4174 102.179 39.671 103.934 42.5605C104.373 43.3486 107.532 41.1596 108.849 41.1596C110.867 41.1596 112.184 43.261 112.535 45.1873C112.886 47.1137 112.886 49.3027 114.027 50.8788C115.431 52.8927 118.151 53.5056 120.17 55.0817C121.662 56.3075 122.715 57.9712 123.593 59.7224C125.172 62.5243 126.752 65.2387 128.244 68.0406C131.228 66.8148 134.475 66.9023 137.547 66.0267C143.164 64.3631 147.289 59.7224 151.15 55.2568C151.589 54.819 151.94 54.2936 152.028 53.6807C152.028 53.2429 151.852 52.7175 151.589 52.3673C150.272 49.6529 149.658 46.5883 148.605 43.6988C145.007 33.1915 136.055 24.6982 125.348 21.7211C124.032 21.3709 122.715 21.0206 121.311 21.1957C119.994 21.3709 118.766 21.9838 117.625 22.5967C115.957 23.4723 114.202 24.3479 112.535 25.136L111.569 25.6613Z" fill="white"/>
</mask>
<g mask="url(#mask5_973_708)">
<path d="M130.877 61.9989L129.999 64.1879C129.824 64.6257 129.736 65.0635 129.824 65.5013L130.263 67.8655C130.614 69.7042 128.771 71.1928 127.015 70.4923L124.821 69.6167C124.383 69.4416 123.944 69.354 123.505 69.4416L121.135 69.8794C119.292 70.2296 117.8 68.3908 118.502 66.6396L119.38 64.4506C119.556 64.0128 119.643 63.575 119.556 63.1372L119.117 60.7731C118.766 58.9343 120.609 57.4458 122.364 58.1463L124.558 59.0219C124.997 59.197 125.436 59.2845 125.874 59.197L128.244 58.7592C130.087 58.4089 131.579 60.2477 130.877 61.9989Z" fill="#EA7D7A"/>
<path d="M125.962 65.9391C125.085 66.6396 123.768 66.552 123.066 65.6764C122.364 64.8008 122.452 63.4874 123.329 62.7869C124.207 62.0864 126.84 65.2386 125.962 65.9391Z" fill="white"/>
</g>
<mask id="mask6_973_708" style="mask-type:luminance" maskUnits="userSpaceOnUse" x="96" y="21" width="57" height="48">
<path d="M111.569 25.6613C106.391 27.4125 101.389 29.6891 96.6497 32.4035C99.2825 34.4174 102.179 39.671 103.934 42.5605C104.373 43.3486 107.532 41.1596 108.849 41.1596C110.867 41.1596 112.184 43.261 112.535 45.1873C112.886 47.1137 112.886 49.3027 114.027 50.8788C115.431 52.8927 118.151 53.5056 120.17 55.0817C121.662 56.3075 122.715 57.9712 123.593 59.7224C125.172 62.5243 126.752 65.2387 128.244 68.0406C131.228 66.8148 134.475 66.9023 137.547 66.0267C143.164 64.3631 147.289 59.7224 151.15 55.2568C151.589 54.819 151.94 54.2936 152.028 53.6807C152.028 53.2429 151.852 52.7175 151.589 52.3673C150.272 49.6529 149.658 46.5883 148.605 43.6988C145.007 33.1915 136.055 24.6982 125.348 21.7211C124.032 21.3709 122.715 21.0206 121.311 21.1957C119.994 21.3709 118.766 21.9838 117.625 22.5967C115.957 23.4723 114.202 24.3479 112.535 25.136L111.569 25.6613Z" fill="white"/>
</mask>
<g mask="url(#mask6_973_708)">
<path d="M115.957 46.5006L115.08 48.6896C114.904 49.1274 114.817 49.5652 114.904 50.003L115.343 52.3672C115.694 54.206 113.851 55.6945 112.096 54.994L109.902 54.1184C109.463 53.9433 109.024 53.8557 108.585 53.9433L106.216 54.3811C104.373 54.7313 102.881 52.8925 103.583 51.1413L104.461 48.9523C104.636 48.5145 104.724 48.0767 104.636 47.6389L104.197 45.2748C103.846 43.436 105.689 41.9475 107.444 42.648L109.639 43.5236C110.077 43.6987 110.516 43.7863 110.955 43.6987L113.325 43.2609C115.168 42.9106 116.66 44.7494 115.957 46.5006Z" fill="#EA7D7A"/>
<path d="M111.043 50.4409C110.165 51.1414 108.849 51.0539 108.147 50.1783C107.444 49.3027 107.532 47.9893 108.41 47.2888C109.288 46.5883 110.604 46.6758 111.306 47.5514C112.096 48.4271 111.92 49.7405 111.043 50.4409Z" fill="white"/>
</g>
<path d="M58.2976 48.6023C54.6115 45.9755 50.9255 43.1736 47.3273 40.3716C46.1864 39.496 45.0454 38.5329 44.3433 37.2195C43.8168 36.1687 43.6412 35.0304 43.4657 33.8922C43.2024 32.2285 42.9391 30.4773 42.6759 28.8136C41.9738 28.7261 41.2717 28.8136 40.6573 28.9888C40.9206 31.7031 41.0961 34.5051 41.3594 37.2195C38.9021 35.5558 33.7241 32.6663 33.7241 32.6663L32.5832 34.9429C32.5832 34.9429 57.4199 48.9526 64.8797 56.6579C65.6696 55.8698 65.7574 55.2569 66.635 54.4689L58.2976 48.6023Z" fill="#A85B35"/>
<path d="M50.399 46.1504C49.6969 46.9385 49.6969 48.1643 50.399 48.8648C51.2766 49.7404 52.0665 50.5285 53.1196 50.9663C53.6462 51.229 54.2606 51.3165 54.7871 51.5792C55.577 51.9294 56.1913 52.5424 56.9812 52.805C58.0343 53.1553 59.3508 52.7175 60.1406 51.6668C60.4039 51.3165 60.5794 50.8787 60.4039 50.3534C60.2284 50.0031 59.9651 49.7404 59.6141 49.7404C58.912 49.6529 58.2976 50.1782 57.771 50.616C58.2099 50.2658 58.7364 49.9155 58.912 49.3026C59.0875 48.8648 58.9997 48.427 58.7364 48.1643C58.2976 47.7265 57.6833 47.9892 57.2445 48.3395C56.5424 48.7773 55.8403 49.2151 55.1382 49.6529C56.1913 49.2151 57.42 48.6021 57.771 47.2887C57.8588 47.1136 57.8588 46.8509 57.771 46.5883C57.5955 46.0629 57.1567 46.0629 56.7179 46.1504C55.3137 46.4131 53.9095 47.1136 52.5931 48.0768C53.9095 47.8141 55.2259 47.2012 56.2791 46.238C56.5424 46.0629 56.6301 45.6251 56.5424 45.2748C56.4546 45.0122 56.2791 44.9246 56.1036 44.9246C54.085 44.6619 52.3298 44.4868 50.399 46.1504Z" fill="#FED5B7"/>
<path d="M138.249 47.2014C139.478 49.5655 140.706 51.9296 141.847 54.2938C142.111 54.8191 142.374 55.432 142.462 56.045C142.549 56.9206 142.111 57.7086 141.76 58.4967C139.829 62.6996 138.337 66.99 137.284 71.5432C137.02 72.6815 136.757 73.9073 136.143 74.958C135.09 76.7968 133.071 77.8475 131.404 79.2485C128.156 81.9629 126.489 86.3409 126.752 90.5438C126.84 91.2443 127.718 91.4194 127.981 90.8065C128.507 89.6682 128.946 88.5299 129.21 87.3041C128.595 88.4424 128.069 89.7558 127.805 90.9816C127.63 91.6821 128.507 92.1199 128.946 91.5945C129.648 90.7189 130.263 89.7558 130.526 88.6175L128.595 91.9448C128.42 92.295 128.683 92.6453 129.034 92.5577C130.35 92.2075 131.579 91.1567 132.018 89.8433C131.491 90.6314 130.877 91.507 130.35 92.295C130.965 92.9079 132.018 92.3826 132.632 91.7697C134.563 89.8433 135.967 87.3916 136.669 84.6772C136.933 83.7141 137.02 82.6634 137.459 81.7878C137.81 80.9997 138.337 80.3868 138.776 79.7739C140.97 76.9719 143.252 74.0824 145.446 71.2805C148.342 67.603 151.413 63.3125 150.887 58.6718C150.711 57.3584 150.36 56.2201 149.921 54.9942C148.693 51.4043 147.376 47.9018 145.972 44.3994C143.69 45.8879 141.145 46.9387 138.512 47.464L138.249 47.2014Z" fill="#FED5B7"/>
<path d="M93.4902 14.7164C94.6311 17.1681 96.8252 22.1591 96.8252 22.1591C96.8252 22.1591 96.7899 25.2996 96 26.0001C97.5797 25.825 99 25.5001 99 25.5001C99 25.5001 99.8969 27.5878 100.599 28.9012C101.389 30.2146 102.881 31.2653 104.285 30.74C104.724 30.5649 105.075 30.2146 105.426 29.8644C106.304 28.9888 107.269 28.2007 108.147 27.3251C110.516 29.1639 113.149 30.74 115.957 32.0534C117.976 28.9888 119.205 25.3988 119.38 21.8088C116.396 20.0576 113.412 18.2188 110.428 16.4676C111.569 16.7303 112.798 15.8547 113.061 14.7164C113.325 13.5781 112.622 12.3523 111.482 11.9145C110.428 11.5642 109.112 12.002 108.41 12.9652C107.795 11.0389 107.006 9.11254 106.04 7.36133C101.564 9.11254 97.3518 11.3016 93.3147 13.8408L93.4902 14.7164Z" fill="#FED5B7"/>
<path d="M124.909 143.255C128.595 143.605 132.369 143.956 136.055 144.218C136.669 144.306 137.371 144.306 137.81 144.744C138.863 145.619 138.425 147.283 137.898 148.509C137.81 148.771 137.723 149.034 137.459 149.209C137.284 149.384 137.02 149.384 136.845 149.472C132.896 150.348 128.683 150.085 124.909 148.596C124.47 148.421 123.944 148.159 123.768 147.721C123.505 147.195 123.681 146.495 123.856 145.969C124.119 145.094 124.383 144.218 124.646 143.43L124.909 143.255Z" fill="#5D8EFF"/>
<path d="M139.653 148.772C143.164 146.407 146.674 144.131 150.185 141.767C150.624 141.504 151.062 141.154 151.589 141.154C152.642 141.154 153.169 142.38 153.52 143.43C153.783 144.481 154.134 145.707 153.52 146.583C153.256 147.02 152.818 147.371 152.379 147.633C149.658 149.472 146.85 151.048 143.954 152.449C143.427 152.712 142.813 152.974 142.198 152.974C141.233 152.887 140.443 152.099 140.092 151.223C139.741 150.348 139.741 149.297 139.741 148.334L139.653 148.772Z" fill="#3363D1"/>
<path d="M127.718 90.8939C128.42 89.8432 128.946 88.7049 129.473 87.5666C129.561 87.3915 129.648 87.304 129.824 87.3915C129.999 87.3915 130.087 87.6542 129.999 87.7418C129.473 88.9676 128.946 90.1059 128.244 91.2442C128.069 91.5069 127.542 91.2442 127.718 90.8939Z" fill="#E1A87E"/>
<path d="M128.858 91.5944C129.824 90.4561 130.701 89.1427 131.316 87.8293C131.491 87.4791 132.018 87.7417 131.842 88.1795C131.14 89.5805 130.263 90.8939 129.297 92.1198C129.034 92.2949 128.595 91.8571 128.858 91.5944Z" fill="#EFBE9A"/>
<path d="M130.35 91.9448C131.053 90.9816 131.667 89.9309 132.193 88.8802C132.281 88.7051 132.457 88.7051 132.632 88.7926C132.808 88.8802 132.808 89.0553 132.72 89.2304C132.193 90.2812 131.579 91.3319 130.877 92.295C130.789 92.4702 130.614 92.4702 130.438 92.3826C130.35 92.295 130.263 92.1199 130.35 91.9448Z" fill="#E1A87E"/>
<path d="M129.122 86.3409C130.701 87.129 132.369 88.0046 133.861 88.8802C134.212 89.0553 133.861 89.6682 133.51 89.4055C131.93 88.5299 130.35 87.6543 128.771 86.8663C128.42 86.6912 128.771 86.1658 129.122 86.3409Z" fill="#E1A87E"/>
<path d="M136.055 78.1976C136.582 78.898 137.02 79.5985 137.459 80.299C137.547 80.4741 137.459 80.6493 137.371 80.7368C137.196 80.8244 137.02 80.7368 136.933 80.6493C136.494 79.9488 136.055 79.2483 135.528 78.5478C135.441 78.3727 135.528 78.1976 135.616 78.11C135.792 78.0224 135.967 78.11 136.055 78.1976Z" fill="#E1A87E"/>
<path d="M144.041 56.22C144.743 56.8329 145.797 56.8329 146.762 56.9205C147.201 56.9205 147.201 57.5334 146.762 57.5334C145.709 57.5334 144.48 57.4458 143.603 56.6578C143.515 56.5702 143.515 56.3076 143.603 56.22C143.69 56.0449 143.954 56.1324 144.041 56.22Z" fill="#E1A87E"/>
<path d="M87.4347 40.7219C88.2246 40.9846 89.19 40.8094 89.8921 40.2841C90.0676 40.1965 90.2431 40.2841 90.3309 40.3716C90.4186 40.5468 90.3309 40.7219 90.2431 40.8094C89.3655 41.4224 88.3123 41.5975 87.347 41.3348C86.8204 41.2472 86.9959 40.6343 87.4347 40.7219Z" fill="#7E4927"/>
<path d="M50.75 45.7127C51.5399 45.1873 52.4175 44.837 53.2951 44.5744C53.7339 44.4868 54.1727 44.3992 54.6116 44.3117C55.0504 44.3117 55.4014 44.2241 55.8402 44.3992C56.6301 44.7495 56.6301 45.7127 56.279 46.4131C55.928 47.2012 55.2259 47.8141 54.5238 48.2519C54.2605 48.427 53.9095 48.0768 54.085 47.8141C54.5238 47.1136 55.1381 46.5883 55.8402 46.238C56.1913 46.0629 56.5423 45.8878 56.9811 45.8002C57.3322 45.7127 57.771 45.6251 58.2098 45.7127C59.1752 45.9753 58.9119 47.0261 58.6486 47.639C58.2976 48.427 57.771 49.1275 57.1567 49.6529C56.8056 49.9156 56.4546 49.5653 56.7179 49.2151C57.1567 48.6897 57.6832 48.2519 58.2976 47.9017C58.7364 47.639 59.614 47.2887 59.9651 47.8141C60.3161 48.3395 59.8773 49.1275 59.5262 49.5653C59.1752 50.0907 58.6486 50.5285 58.1221 50.7912C57.771 50.9663 57.5077 50.5285 57.771 50.2658C58.2098 49.9156 58.8241 49.5653 59.4385 49.5653C59.9651 49.5653 60.4039 49.9156 60.5794 50.4409C60.7549 50.7912 60.1406 50.9663 59.9651 50.616C59.8773 50.3534 59.4385 50.1782 59.1752 50.2658C58.7364 50.3534 58.3853 50.616 58.0343 50.8787C57.9465 50.7036 57.8588 50.5285 57.6832 50.3534C58.1221 50.1782 58.4731 49.9156 58.7364 49.5653C58.9119 49.3902 58.9997 49.2151 59.0874 48.9524C59.1752 48.8648 59.3507 48.427 59.263 48.3395C59.0874 48.0768 58.2976 48.6021 58.1221 48.6897C57.6832 48.9524 57.3322 49.3026 56.9811 49.7404C56.8056 49.5653 56.7179 49.4778 56.5423 49.3026C57.0689 48.8648 57.5077 48.3395 57.771 47.8141C57.9465 47.4639 58.4731 46.4131 57.6832 46.4131C57.0689 46.4131 56.4546 46.6758 55.928 47.0261C55.4014 47.3763 54.8748 47.8141 54.5238 48.3395C54.3483 48.1643 54.2605 48.0768 54.085 47.9017C54.6993 47.5514 55.2259 47.0261 55.5769 46.4131C55.7525 46.1505 55.8402 45.8878 55.8402 45.5375C55.7525 45.1873 55.4892 45.0997 55.2259 45.0997C54.5238 45.0122 53.7339 45.1873 53.1196 45.45C52.4175 45.6251 51.7154 45.9753 51.1011 46.4131C50.6623 46.4131 50.399 45.8878 50.75 45.7127Z" fill="#7E4927"/>
<path d="M58.2098 45.7126C58.9119 46.0629 59.7895 45.9753 60.4038 45.4499C60.4916 45.3624 60.7549 45.3624 60.8426 45.4499C60.9304 45.5375 60.9304 45.8002 60.8426 45.8878C60.0528 46.5882 58.8241 46.7634 57.8587 46.238C57.6832 46.1504 57.6832 45.9753 57.771 45.8002C57.8587 45.7126 58.122 45.7126 58.2098 45.7126Z" fill="#7E4927"/>
<path d="M63.6511 45.0124C63.9144 45.8004 64.1777 46.5009 64.6165 47.2014C64.7042 47.3765 64.6165 47.5516 64.5287 47.6392C64.3532 47.7267 64.1777 47.6392 64.0899 47.5516C63.7388 46.8511 63.3878 46.0631 63.1245 45.275C63.0367 45.0999 63.2123 44.9248 63.3 44.9248C63.4756 44.7497 63.6511 44.8372 63.6511 45.0124Z" fill="#7E4927"/>
<path d="M59.614 48.8649C60.2283 47.9017 61.2815 47.2012 62.4224 47.0261C62.5979 47.0261 62.7734 47.0261 62.7734 47.2012C62.7734 47.3764 62.6857 47.5515 62.5979 47.5515C61.6325 47.7266 60.6671 48.252 60.1406 49.1276C60.0528 49.3027 59.8773 49.3027 59.7017 49.2151C59.5262 49.2151 59.5262 48.9525 59.614 48.8649Z" fill="#7E4927"/>
<path d="M109.726 14.8038C109.99 14.2784 110.341 13.8406 110.604 13.3152C110.692 13.1401 110.867 13.1401 111.043 13.2277C111.218 13.3152 111.218 13.4904 111.131 13.6655C110.867 14.1908 110.516 14.6286 110.253 15.154C110.165 15.3291 109.99 15.3291 109.814 15.2416C109.639 15.0665 109.639 14.8913 109.726 14.8038Z" fill="#7E4927"/>
<path d="M110.516 14.366C110.604 14.366 110.78 14.4535 110.867 14.4535C110.955 14.4535 110.955 14.4535 111.043 14.4535H111.131C111.131 14.4535 111.131 14.4535 111.218 14.4535C111.482 14.4535 111.657 14.5411 111.92 14.5411C112.096 14.5411 112.271 14.7162 112.271 14.8913C112.271 15.0665 112.096 15.2416 111.92 15.2416C111.394 15.2416 110.955 15.154 110.428 15.0665C110.253 15.0665 110.165 14.8038 110.253 14.7162C110.253 14.4535 110.341 14.366 110.516 14.366Z" fill="#7E4927"/>
<path opacity="0.38" d="M108.234 27.3251L112.008 22.5093L110.341 28.9888L108.234 27.3251Z" fill="#7E4927"/>
<path d="M100.511 25.749H100.599C100.599 25.749 100.599 25.749 100.687 25.749C100.775 25.749 100.599 25.749 100.687 25.749C100.775 25.749 100.862 25.6614 100.862 25.6614L100.95 25.5738C101.038 25.4863 101.126 25.4863 101.126 25.3987C101.213 25.3112 101.213 25.2236 101.301 25.2236C101.301 25.136 101.389 25.136 101.389 25.136L101.477 25.0485C101.564 24.9609 101.564 24.8733 101.652 24.7858C101.652 24.6982 101.74 24.6982 101.74 24.6107C101.74 24.6107 101.74 24.6107 101.74 24.5231C101.74 24.5231 101.74 24.5231 101.74 24.4355C101.828 24.2604 101.915 24.1729 102.091 24.2604C102.267 24.348 102.354 24.5231 102.267 24.6107C101.915 25.3987 101.389 26.1868 100.511 26.3619C100.336 26.3619 100.16 26.2743 100.16 26.1868C100.248 26.0116 100.336 25.8365 100.511 25.749Z" fill="#7E4927"/>
<path d="M100.336 20.4078C100.511 21.0208 100.336 21.6337 99.8969 21.8088C99.4581 21.9839 98.9315 21.6337 98.756 21.0208C98.5805 20.4078 98.756 19.7949 99.1948 19.6198C99.5458 19.4447 100.072 19.8825 100.336 20.4078Z" fill="black"/>
<path d="M96.6497 16.6426C96.8252 16.9929 97.1762 17.2556 97.615 17.3431C98.0539 17.4307 98.4927 17.4307 98.8437 17.3431C99.4581 17.2556 100.16 17.0804 100.774 16.8178C100.862 16.8178 101.038 16.7302 101.038 16.6426C101.126 16.4675 101.126 16.2048 100.95 16.1173C100.774 15.9422 100.599 15.9422 100.423 15.8546C99.6336 15.5919 98.8437 15.5044 98.0539 15.5919C97.7028 15.5919 97.3518 15.6795 97.0885 15.8546C96.8252 16.0297 96.6497 16.4675 96.8252 16.8178L96.6497 16.6426Z" fill="black"/>
<path d="M92.9637 12.6149C92.7004 13.7532 93.8413 14.8039 95.07 14.8915C96.2109 14.9791 97.3518 14.4537 98.405 14.0159C99.4581 13.4905 100.599 13.0527 101.74 13.1403C102.881 13.2278 104.11 14.0159 104.285 15.1542C104.461 16.0298 103.934 17.0805 104.461 17.781C104.899 18.4815 105.953 18.4815 106.83 18.6566C107.883 18.8317 108.936 19.3571 109.726 20.0576C110.428 20.758 110.955 21.7212 110.604 22.6844C111.131 22.2466 111.745 21.7212 112.184 21.1083C112.622 20.4954 112.886 19.7073 112.71 19.0068C112.535 18.2188 111.92 17.6059 111.218 17.0805C110.604 16.5551 109.814 16.2049 109.288 15.592C108.761 14.9791 108.498 14.0159 108.936 13.3154C109.2 12.79 109.463 11.9144 110.077 11.8269C110.604 11.7393 111.833 11.8269 112.447 11.9144C112.359 10.3383 110.955 9.46274 109.463 8.84982C108.936 8.6747 108.322 8.49958 107.796 8.23689C107.093 7.79909 106.655 7.01105 106.04 6.39812C104.899 5.25984 103.144 4.99716 101.564 5.17228C99.9847 5.43496 98.5805 6.13544 97.1763 7.01105C96.0354 7.71153 94.8067 8.49958 94.0169 9.63786C93.227 10.7761 92.876 12.2647 93.4903 13.5781L92.9637 12.6149Z" fill="black"/>
<path d="M118.239 20.3203C118.854 21.0208 119.468 21.8088 119.819 22.772C120.17 23.8227 119.994 24.8734 119.819 25.9241C119.643 27.7629 119.556 29.6892 119.995 31.528C120.433 33.3668 121.399 35.118 122.978 36.1687C124.558 37.2194 126.752 37.5697 128.42 36.6941C127.103 36.2563 126.138 35.118 125.436 33.9797C124.909 33.1041 124.383 32.0534 124.558 31.0027C124.734 30.2146 125.348 29.5141 126.05 29.0763C126.752 28.6385 127.542 28.2883 128.332 27.938C129.21 27.5878 130.087 27.15 130.877 26.7122C131.404 26.4495 132.018 26.0993 132.457 25.5739C132.983 24.961 133.159 24.1729 133.247 23.4724C133.422 22.0715 133.247 20.5829 132.808 19.182C132.545 18.3064 132.106 17.4308 131.404 16.8178C130.35 15.8547 128.858 15.592 127.718 14.804L118.239 20.3203Z" fill="black"/>
<path d="M102.003 1.49467C104.812 0.443945 108.059 -0.694342 110.955 0.531505C113.325 1.58223 114.729 3.8588 116.572 5.43489C117.625 6.3105 118.854 6.83586 120.258 7.09854C121.75 7.36123 123.242 7.36123 124.821 7.53635C126.138 7.71147 127.367 8.14927 128.42 8.84975C129.385 9.46268 130.175 10.3383 130.789 11.3014C132.018 13.2278 132.545 15.6795 132.018 17.956C131.93 18.2187 131.842 18.4814 131.755 18.7441C131.579 19.0943 131.053 18.9192 131.14 18.569C131.93 16.4675 131.579 14.1034 130.526 12.1771C129.385 10.1632 127.542 8.67463 125.172 8.23683C122.364 7.71147 119.38 8.14927 116.923 6.48562C114.904 5.08465 113.588 2.89564 111.569 1.58223C108.673 -0.3441 105.075 0.881747 102.091 2.02003C101.828 2.28272 101.652 1.66979 102.003 1.49467Z" fill="black"/>
<path d="M91.7351 6.22289C89.6288 7.71142 88.2246 9.90043 87.4347 12.3521C86.6448 14.8038 86.6448 17.5182 87.2592 20.0575C87.6102 21.4584 88.2246 22.7718 88.8389 24.1728C89.4532 25.5738 89.7165 27.1499 89.3655 28.6384C88.6634 31.3528 86.2938 33.2791 85.5917 36.081C84.9774 38.6203 85.7672 41.5098 87.6102 43.3486C87.8735 43.6112 88.049 43.7864 88.3123 44.049C88.6634 44.3117 88.3123 44.8371 87.9613 44.5744C85.7672 42.9107 84.5385 40.1088 84.7141 37.3944C84.8018 35.9935 85.3284 34.6801 86.0305 33.4542C86.7326 32.2284 87.6102 31.0025 88.3123 29.6891C88.5756 29.0762 88.8389 28.3757 88.9267 27.6752C89.0144 26.8872 88.9267 26.0991 88.6634 25.3111C88.2246 23.8226 87.3469 22.4216 86.9081 20.9331C86.1183 18.3938 86.1183 15.5919 86.7326 13.0526C87.3469 10.5134 88.6634 8.14922 90.6819 6.39801C90.9452 6.13533 91.2085 5.96021 91.4718 5.78509C91.7351 5.43485 92.0861 5.96021 91.7351 6.22289Z" fill="black"/>
<path d="M7.34298 103.444C1.9648 93.7852 2.50262 81.1219 8.7413 72C6.48247 76.8292 5.94465 82.4097 7.02028 87.6682C8.20348 92.9266 11.0001 97.7559 15.0875 101.19C13.259 103.122 10.1396 103.658 7.66567 102.585L7.34298 103.444Z" fill="#54260C"/>
<path d="M23.1548 133.278C23.0472 137.248 22.9397 141.219 23.6926 145.082C24.4456 148.946 26.1666 152.809 29.1784 155.385C30.254 156.243 31.975 156.994 32.8355 155.921C33.2658 155.385 33.2658 154.526 32.9431 153.882C32.6204 153.238 32.1901 152.702 31.7599 152.058C29.6086 148.838 30.4691 144.653 31.4372 140.897C32.1901 137.678 33.0506 134.458 33.8036 131.239C33.8036 131.024 33.9111 130.809 33.8036 130.595C33.696 130.273 33.2658 130.058 32.8355 130.058C30.4691 129.629 27.9952 129.521 25.6288 129.843L23.1548 133.278Z" fill="#54260C"/>
<path d="M45.0978 97.8633C46.8188 94.6438 49.2927 91.8536 52.197 89.7072C52.7348 89.3853 53.2726 89.0633 53.8104 88.7414C56.2844 87.3463 59.2961 86.5951 62.0928 87.239C64.0289 87.6682 65.8575 88.7414 67.7937 88.956C69.4071 89.0633 71.1281 88.6341 72.634 87.8829C73.4945 87.4536 74.4626 87.0243 75.2156 87.4536C75.5382 87.5609 75.6458 87.8829 75.8609 88.0975C78.55 91.9609 77.9046 97.756 74.2475 100.868C71.666 103.122 68.0088 103.873 65.6424 106.341C64.3516 107.736 63.5987 109.453 62.9533 111.17C61.1247 115.463 60.4793 119.112 60.4793 123.834C60.4793 125.873 60.4793 128.556 60.1567 130.487C59.9415 131.453 63.0609 144.009 64.7819 147.98C65.8575 150.448 67.0407 153.131 69.0844 154.955C70.2676 156.029 71.7735 156.78 73.2794 157.102C74.8929 157.316 75.108 159.677 73.6021 160.214C72.5265 160.536 71.3433 160.643 70.2676 160.429C67.5785 159.677 63.7063 158.282 61.8777 156.029C58.3281 151.521 52.6272 143.473 49.6154 138.429C49.0776 137.57 50.5835 137.463 49.723 137.785L44.5599 139.073C44.1297 139.18 43.6994 139.395 43.3767 139.717C42.8389 140.36 42.9465 141.326 43.1616 142.078C43.9146 145.404 45.528 151.843 46.9263 154.955C48.5398 158.39 51.1213 161.609 54.7785 163.004C55.5314 163.326 55.9617 164.185 55.7466 164.936C55.4239 165.794 54.4558 165.794 53.5953 165.687C51.0138 165.365 48.3247 164.936 46.1734 163.433C44.7751 162.36 43.6994 160.858 42.6238 159.355C37.6759 152.165 32.8355 144.868 29.1784 136.926C22.617 137.248 19.7128 136.604 15.8405 131.346C19.0674 136.175 13.5816 140.146 13.7968 145.941C14.0119 149.912 15.3027 153.882 17.4539 157.209C17.8842 157.853 18.3144 158.497 17.8842 159.355C17.6691 159.785 17.2388 160.107 16.8086 160.321C15.8405 160.643 14.8724 160.429 13.9043 160.107C10.4623 158.819 7.77322 155.599 7.02027 152.058C6.26733 148.302 7.45053 144.331 7.2354 140.575C6.69758 132.204 -0.509172 125.229 0.028646 116.858C0.13621 114.39 0.996718 112.029 1.85723 109.668C3.79337 104.839 6.59002 99.6876 11.4304 97.9706C16.2707 96.2535 22.0792 101.727 26.812 103.766C28.7481 104.624 39.9347 105.805 42.7314 101.941L45.0978 97.8633Z" fill="#A85B35"/>
<path d="M65.3198 90.4585C63.4912 89.9219 61.2324 89.4926 59.9416 90.8877C59.6189 91.317 59.4038 91.7463 59.2962 92.1755C58.6508 94.1072 58.5433 96.3609 59.6189 98.1853C60.0492 98.9365 60.6945 99.6877 61.555 100.117C63.3836 101.19 65.8576 101.083 67.5786 99.795C69.2996 98.5072 70.0526 96.1462 69.5147 94.1072C68.9769 92.0682 66.9332 90.4585 64.8895 90.3512L65.3198 90.4585Z" fill="#D38C6C"/>
<path d="M52.4121 94.2144C53.3801 96.7899 55.3163 98.829 57.4676 100.546C59.7264 102.478 62.3079 104.087 63.9214 106.556C65.5348 109.024 65.7499 112.78 63.4911 114.604C62.0928 115.785 60.1566 115.892 58.3281 115.785C56.4995 115.57 54.7785 115.141 52.9499 115.141C50.9062 115.141 48.5398 115.892 46.8188 114.712C44.9902 113.531 44.8826 110.956 44.9902 108.809C45.0977 107.414 45.0977 105.912 45.3129 104.517C45.7431 100.117 48.4322 96.2534 52.4121 94.2144Z" fill="#54260C"/>
<path d="M65.3197 93.4633C65.3197 94.3218 64.5668 95.073 63.5987 95.073C62.6307 95.073 61.7701 94.3218 61.7701 93.4633C61.7701 92.6047 62.5231 91.8535 63.4912 91.8535C64.5668 91.8535 65.3197 92.6047 65.3197 93.4633Z" fill="black"/>
<path d="M21.4339 101.619C21.5414 103.444 20.1431 105.053 19.175 106.556C16.486 110.741 16.2708 116.751 19.6053 120.507C20.5734 121.58 21.9717 122.546 23.37 122.439C26.5969 122.117 27.4574 117.395 30.4692 116.322C32.8356 115.463 35.5247 117.287 37.8911 116.429C39.7197 115.785 40.6877 113.853 40.7953 111.922C40.9029 109.99 40.2575 108.165 39.5045 106.448C39.1819 105.59 38.7516 104.624 37.8911 104.409C37.4608 104.302 36.923 104.409 36.4928 104.517C33.2659 105.161 29.1785 104.195 21.2187 100.439L21.4339 101.619Z" fill="#D38C6C"/>
<path d="M43.2692 139.18C46.7113 138.107 50.2609 137.463 53.4878 135.746C54.8861 134.995 56.1769 134.029 57.2525 132.848C58.3281 131.668 58.9735 130.165 59.4038 128.556C59.834 126.624 59.9416 124.692 59.9416 122.761C59.9416 122.224 60.8021 122.224 60.8021 122.761C60.6945 126.195 60.587 129.951 58.4357 132.848C56.392 135.639 53.1651 137.141 49.9382 138.107C47.8945 138.751 45.7432 139.287 43.5919 139.931C42.9465 140.146 42.7314 139.287 43.2692 139.18Z" fill="#54260C"/>
<path d="M71.3432 157.424C72.2037 157.96 72.9567 158.711 73.3869 159.677C73.4945 159.892 73.4945 160.106 73.2794 160.321C73.0642 160.428 72.7416 160.428 72.634 160.214C72.5264 159.999 72.4189 159.785 72.3113 159.57C72.2037 159.463 72.2037 159.355 72.0962 159.248C72.0962 159.248 72.0962 159.248 72.0962 159.141L71.9886 159.033C71.8811 158.819 71.6659 158.711 71.5584 158.604C71.5584 158.604 71.5584 158.604 71.4508 158.604L71.3432 158.497C71.2357 158.389 71.1281 158.389 71.0205 158.282C70.8054 158.175 70.6979 157.853 70.913 157.638C70.8054 157.316 71.1281 157.316 71.3432 157.424Z" fill="#54260C"/>
<path d="M73.2793 157.209C73.602 157.745 74.0323 158.282 74.355 158.711C74.4625 158.819 74.4625 158.926 74.355 159.033C74.355 159.141 74.2474 159.248 74.1398 159.248C73.9247 159.355 73.7096 159.248 73.4944 159.141C73.1718 158.604 72.7415 158.067 72.4188 157.638C72.3112 157.531 72.3112 157.424 72.4188 157.316C72.4188 157.209 72.5264 157.102 72.6339 157.102C72.9566 156.994 73.1718 157.102 73.2793 157.209Z" fill="#54260C"/>
<path d="M52.3046 162.897C53.0575 163.326 53.4878 164.077 53.4878 164.936C53.4878 165.15 53.2726 165.365 53.0575 165.365C52.8424 165.365 52.6272 165.15 52.6272 164.936V164.828C52.6272 164.828 52.6272 164.828 52.6272 164.721C52.6272 164.614 52.6272 164.614 52.5197 164.506V164.399C52.5197 164.292 52.4121 164.292 52.4121 164.185C52.4121 164.185 52.4121 164.077 52.3046 164.077C52.3046 163.97 52.197 163.97 52.197 163.863C52.0894 163.755 52.0894 163.755 51.9819 163.755C51.9819 163.755 51.8743 163.755 51.8743 163.648C51.6592 163.541 51.5516 163.219 51.7667 163.004C51.7667 162.897 52.0894 162.789 52.3046 162.897Z" fill="#54260C"/>
<path d="M54.1331 162.789C54.6709 163.433 54.9936 164.185 55.1012 164.936C55.1012 165.043 55.1012 165.15 55.1012 165.258C55.1012 165.365 54.9936 165.472 54.886 165.472C54.6709 165.472 54.3482 165.365 54.3482 165.15C54.3482 164.936 54.2407 164.828 54.2407 164.614C54.2407 164.507 54.2407 164.399 54.1331 164.399V164.292C54.1331 164.292 54.0255 164.185 54.1331 164.185C54.1331 164.292 54.1331 164.077 54.1331 164.077C54.1331 164.077 54.1331 163.97 54.0255 163.97C54.0255 163.863 53.918 163.863 53.918 163.755C53.918 163.648 53.8104 163.648 53.8104 163.541C53.8104 163.541 53.8104 163.433 53.7028 163.433C53.5953 163.326 53.5953 163.219 53.5953 163.111C53.5953 163.004 53.5953 162.897 53.7028 162.789C53.7028 162.682 54.0255 162.575 54.1331 162.789Z" fill="#54260C"/>
<path d="M13.5817 156.136C14.5498 156.672 15.3027 157.638 15.5179 158.711C15.5179 158.926 15.4103 159.248 15.1952 159.248C14.98 159.248 14.6574 159.141 14.6574 158.926C14.6574 158.819 14.6574 158.711 14.5498 158.604C14.5498 158.497 14.5498 158.497 14.4422 158.389C14.3347 158.175 14.2271 157.96 14.1195 157.746C14.1195 157.746 14.1195 157.745 14.012 157.638L13.9044 157.531C13.7968 157.424 13.6893 157.316 13.6893 157.316C13.6893 157.316 13.6893 157.316 13.5817 157.209C13.6893 157.209 13.4742 157.102 13.5817 157.209L13.4742 157.102C13.3666 156.994 13.259 156.994 13.1515 156.887C12.9363 156.78 12.8288 156.458 13.0439 156.243C13.0439 156.136 13.259 156.028 13.5817 156.136Z" fill="#54260C"/>
<path d="M15.733 156.136C16.4859 157.209 17.0237 158.39 17.1313 159.677C17.1313 159.892 16.9162 160.107 16.701 160.107C16.4859 160.107 16.2708 159.892 16.2708 159.677C16.1632 158.711 15.733 157.638 15.0876 156.78C14.98 156.565 14.8725 156.351 15.0876 156.136C15.3027 156.029 15.6254 155.921 15.733 156.136Z" fill="#54260C"/>
<path d="M16.5934 134.029C16.2708 128.77 13.6892 123.834 9.92451 120.292C8.84888 119.326 7.66568 118.468 6.37492 117.717C5.8371 117.395 6.37491 116.644 6.80517 116.965C11.538 119.756 15.0876 124.37 16.5934 129.521C17.0237 131.024 17.3464 132.526 17.454 134.029C17.454 134.565 16.5934 134.565 16.5934 134.029Z" fill="#54260C"/>
<path d="M29.2859 138.321C27.9951 136.39 26.7044 134.351 26.1665 132.097C25.5212 129.629 25.9514 127.161 26.7044 124.8C26.9195 124.263 27.6724 124.478 27.5649 125.014C26.8119 127.268 26.3817 129.629 27.027 131.99C27.5649 134.136 28.8556 136.068 30.0388 137.892C30.3615 138.429 29.6086 138.858 29.2859 138.321Z" fill="#54260C"/>
<path d="M39.2893 124.478C39.2893 126.302 39.2893 128.126 39.5044 129.951C39.612 131.024 39.8271 131.882 40.2574 132.956C41.2255 135.316 42.3011 137.57 43.054 140.038C43.4843 141.434 43.807 142.936 43.807 144.331C43.807 144.868 42.9465 144.868 42.9465 144.331C42.9465 141.648 41.8708 139.073 40.9028 136.604C40.0423 134.673 38.9666 132.741 38.7515 130.595C38.4288 128.556 38.4288 126.517 38.4288 124.478C38.3213 123.834 39.2893 123.834 39.2893 124.478Z" fill="#54260C"/>
<path d="M52.5196 127.053C52.4121 127.804 52.3045 128.556 52.1969 129.307C52.1969 129.521 51.8742 129.629 51.6591 129.629C51.444 129.521 51.3364 129.307 51.3364 129.092C51.444 128.341 51.5516 127.59 51.6591 126.839C51.6591 126.624 51.9818 126.517 52.1969 126.517C52.5196 126.624 52.6272 126.839 52.5196 127.053Z" fill="#54260C"/>
<path d="M54.5634 128.448C54.4559 129.092 54.3483 129.736 54.3483 130.38C54.3483 130.487 54.3483 130.595 54.2407 130.702C54.1332 130.809 54.0256 130.809 53.918 130.809C53.7029 130.809 53.4878 130.595 53.4878 130.38C53.5954 129.736 53.7029 129.092 53.7029 128.448C53.7029 128.341 53.7029 128.234 53.8105 128.126C53.9181 128.019 54.0256 128.019 54.1332 128.019C54.3483 128.019 54.5634 128.234 54.5634 128.448Z" fill="#54260C"/>
<path d="M57.1449 124.8C57.0373 125.121 56.9298 125.551 56.8222 125.873C56.8222 126.087 56.7146 126.195 56.7146 126.409C56.7146 126.409 56.7146 126.409 56.7146 126.517V126.624C56.7146 126.731 56.7146 126.839 56.7146 126.946C56.7146 127.16 56.4995 127.375 56.2844 127.375C56.0693 127.375 55.8541 127.16 55.8541 126.946C55.8541 126.087 56.0693 125.336 56.3919 124.585C56.4995 124.37 56.7146 124.156 56.9298 124.263C57.0373 124.37 57.2525 124.585 57.1449 124.8Z" fill="#54260C"/>
<path d="M77.1516 90.7803C77.1516 92.068 77.0441 93.3558 76.8289 94.6436C76.6138 95.7168 76.2911 96.79 75.6457 97.6485C74.4625 99.1509 72.0961 99.9021 70.5903 98.507C70.16 98.1851 70.8054 97.5412 71.2356 97.8631C71.881 98.3997 72.634 98.3997 73.3869 98.1851C74.2474 97.9704 74.8928 97.4339 75.3231 96.6826C75.8609 95.9314 76.076 94.9656 76.1836 93.9997C76.3987 92.9266 76.3987 91.8534 76.3987 90.6729C76.2911 90.2437 77.2592 90.2437 77.1516 90.7803Z" fill="#54260C"/>
<path d="M77.0442 92.2827C76.7215 91.3169 75.3232 91.2095 74.3551 91.4242C73.3871 91.7461 72.2038 92.1754 71.3433 91.6388C70.3753 91.1022 70.3753 89.5998 71.0207 88.634C71.666 87.6681 72.7417 87.2388 73.8173 86.8096C74.3551 86.5949 75.0005 86.273 75.6459 86.5949C75.9686 86.7023 76.1837 87.0242 76.3988 87.3462C77.0442 88.0974 77.582 88.9559 77.9047 89.9217C78.1198 90.8876 78.0123 91.9607 77.1518 92.6046L77.0442 92.2827Z" fill="black"/>
<path d="M61.0171 88.0973C61.3398 88.5266 61.6625 89.0632 61.9852 89.4924C62.0928 89.5998 62.2003 89.7071 62.0928 89.9217C62.0928 90.029 61.9852 90.1363 61.8777 90.2437C61.6625 90.4583 61.3398 90.5656 61.1247 90.7802C59.8339 91.7461 58.4356 92.7119 57.0373 93.6778C57.36 91.3168 58.7583 89.1705 60.802 87.7754L61.0171 88.0973Z" fill="black"/>
<path d="M16.9161 97.7559C16.4859 98.5071 16.4859 99.4729 16.8086 100.331C16.9161 100.546 16.701 100.868 16.4859 100.868C16.2707 100.975 16.0556 100.761 15.948 100.546C15.5178 99.4729 15.6254 98.2924 16.1632 97.3266C16.2707 97.112 16.5934 97.0047 16.8086 97.2193C17.0237 97.3266 17.0237 97.5412 16.9161 97.7559Z" fill="#A85B35"/>
<path d="M18.5295 98.0778C18.4219 98.9364 18.4219 99.9022 18.6371 100.761C18.6371 100.975 18.5295 101.297 18.3144 101.297C18.0992 101.297 17.7765 101.19 17.7765 100.975C17.5614 99.9022 17.5614 98.8291 17.669 97.8632C17.669 97.6486 17.9917 97.5413 18.2068 97.5413C18.4219 97.6486 18.5295 97.8632 18.5295 98.0778Z" fill="#A85B35"/>
<path d="M1.64208 105.59C1.74964 105.805 1.85721 106.126 2.07233 106.341C2.07233 106.448 2.1799 106.448 2.1799 106.556C2.28746 106.663 2.07233 106.448 2.1799 106.556C2.1799 106.556 2.1799 106.663 2.28746 106.663C2.39502 106.77 2.50259 106.878 2.61015 106.985C2.71771 107.092 2.82528 107.2 2.93284 107.307L3.04041 107.414C3.04041 107.414 3.04041 107.414 3.14797 107.522C3.3631 107.736 3.57822 107.844 3.90091 107.951C4.11604 108.058 4.2236 108.38 4.00848 108.595C3.79335 108.595 3.57822 108.702 3.3631 108.595C2.28746 108.058 1.31939 107.2 0.889135 106.019C0.781571 105.805 0.781571 105.59 0.996699 105.375C1.21183 105.375 1.53452 105.375 1.64208 105.59Z" fill="#A85B35"/>
<path d="M2.82531 105.053C2.93287 105.268 3.148 105.375 3.25556 105.59C3.36313 105.697 3.47069 105.697 3.47069 105.805C3.47069 105.805 3.47069 105.805 3.57825 105.805L3.68582 105.912C3.90095 106.019 4.00851 106.127 4.22364 106.234C4.3312 106.234 4.3312 106.234 4.43876 106.341C4.43876 106.341 4.43876 106.341 4.54633 106.341C4.65389 106.341 4.76145 106.449 4.86902 106.449C5.08414 106.556 5.29927 106.77 5.19171 106.985C5.08414 107.2 4.86902 107.414 4.65389 107.307C3.68582 106.985 2.82531 106.449 2.17993 105.697C2.07237 105.483 1.9648 105.268 2.17993 105.053C2.39506 104.946 2.71775 104.946 2.82531 105.053Z" fill="#A85B35"/>
<path d="M50.6912 91.9609C51.7668 91.1023 52.1971 89.5999 52.3046 88.0975C52.4122 86.7024 52.3046 85.1999 52.7349 83.8048C52.95 83.2682 53.2727 82.7317 53.8105 82.517C54.5635 82.3024 55.3164 83.0536 55.5315 83.9121C55.9618 84.9853 56.0693 86.0585 55.8542 87.1316C55.8542 85.6292 56.4996 84.0195 57.4677 82.839C57.5752 82.7317 57.6828 82.6243 57.7904 82.6243C58.113 82.517 58.4357 82.9463 58.4357 83.2682C58.6509 84.1268 58.6509 84.9853 58.3282 85.7365C58.7584 85.6292 58.9736 85.1999 59.4038 85.0926C59.7265 84.878 60.3719 84.878 60.4794 85.3073C60.587 85.6292 60.4794 85.9511 60.2643 86.1658C59.0811 87.8828 57.2525 89.1706 55.2088 89.5999L50.6912 91.9609Z" fill="#A85B35"/>
<path d="M52.7347 90.2438C52.7347 88.956 53.0574 87.5609 53.7028 86.4877C53.8104 86.2731 54.2406 86.1658 54.3482 86.3804C55.1011 87.239 55.3163 88.3121 55.1011 89.4926C54.7784 89.3853 54.5633 89.3853 54.2406 89.278C54.5633 88.6341 54.886 87.9902 55.4238 87.4536C55.8541 87.0243 56.4995 86.4877 57.2524 86.5951C57.5751 86.5951 57.8978 86.8097 58.1129 87.1316C58.328 87.4536 58.328 87.8828 58.2205 88.2048C58.0054 88.956 57.5751 89.5999 57.1448 90.1365C56.8222 90.5658 56.1768 89.9218 56.4995 89.4926C56.8222 89.0633 57.1448 88.6341 57.2524 88.0975C57.36 87.7755 57.4675 87.3463 57.0373 87.3463C56.607 87.3463 56.1768 87.7755 55.8541 88.0975C55.5314 88.5267 55.3163 88.956 55.1011 89.3853C54.9936 89.5999 54.7784 89.7072 54.5633 89.7072C54.3482 89.5999 54.2406 89.3853 54.2406 89.1706C54.4558 88.4194 54.2406 87.5609 53.7028 86.917C53.9179 86.917 54.1331 86.8097 54.3482 86.8097C53.8104 87.7755 53.4877 88.956 53.4877 90.1365C53.7028 90.7804 52.7347 90.7804 52.7347 90.2438Z" fill="#54260C"/>
<path d="M42.9465 119.541C42.9465 119.648 42.8389 119.648 42.8389 119.756C42.8389 119.756 42.8389 119.756 42.8389 119.863V119.97C42.7314 120.185 42.7314 120.292 42.7314 120.507V120.4C42.7314 120.507 42.7314 120.722 42.7314 120.936C42.7314 121.151 42.5162 121.365 42.3011 121.365C42.086 121.365 41.8708 121.151 41.8708 120.936C41.8708 120.292 41.9784 119.648 42.3011 119.219C42.4087 119.005 42.7314 118.897 42.9465 119.112C43.054 119.005 43.1616 119.326 42.9465 119.541Z" fill="#54260C"/>
<path d="M45.9582 118.79C45.9582 118.897 45.9582 119.005 45.9582 119.005V119.112C45.9582 119.326 45.9582 119.434 45.9582 119.648C45.9582 119.97 45.9582 120.292 45.9582 120.722C45.9582 120.936 45.7431 121.151 45.528 121.151C45.3128 121.151 45.0977 120.936 45.0977 120.722C44.9902 119.97 45.0977 119.219 45.2053 118.468C45.2053 118.253 45.528 118.146 45.7431 118.146C45.8507 118.361 45.9582 118.575 45.9582 118.79Z" fill="#54260C"/>
<path d="M34.3413 138.858C34.4489 139.287 34.4489 139.609 34.5565 139.931C34.664 140.146 34.664 140.253 34.7716 140.468C34.7716 140.468 34.7716 140.468 34.7716 140.575C34.7716 140.575 34.7716 140.682 34.8792 140.682C34.8792 140.79 34.9867 140.897 34.9867 141.004C35.0943 141.219 35.0943 141.541 34.8792 141.648C34.664 141.756 34.3413 141.756 34.2338 141.541C33.9111 140.79 33.5884 140.039 33.4808 139.18C33.4808 139.073 33.4808 138.965 33.4808 138.858C33.4808 138.751 33.5884 138.643 33.696 138.643C34.0187 138.536 34.3413 138.643 34.3413 138.858Z" fill="#54260C"/>
<path d="M36.7078 140.468C36.7078 140.79 36.7078 141.219 36.7078 141.541C36.7078 141.755 36.4927 141.97 36.2775 141.97C36.0624 141.97 35.8473 141.755 35.8473 141.541C35.8473 141.219 35.8473 140.79 35.8473 140.468C35.8473 140.253 36.0624 140.038 36.2775 140.038C36.4927 140.038 36.7078 140.253 36.7078 140.468Z" fill="#54260C"/>
<path d="M30.8993 132.204C31.0069 132.848 31.1145 133.492 31.3296 134.136C31.3296 134.351 31.222 134.673 31.0069 134.673C30.7918 134.673 30.4691 134.565 30.4691 134.351C30.3615 133.707 30.2539 133.063 30.0388 132.419C30.0388 132.204 30.1464 131.882 30.3615 131.882C30.5766 131.882 30.8993 131.99 30.8993 132.204Z" fill="#54260C"/>
<path d="M32.6204 131.775C32.728 132.312 32.728 132.848 32.8355 133.492C32.8355 133.6 32.728 133.707 32.728 133.814C32.6204 133.922 32.5128 133.922 32.4053 133.922C32.2977 133.922 32.1901 133.922 32.0826 133.814C31.975 133.707 31.975 133.6 31.975 133.492C31.8675 132.956 31.8675 132.419 31.7599 131.775C31.7599 131.668 31.8675 131.561 31.8675 131.453C31.975 131.346 32.0826 131.346 32.1901 131.346C32.2977 131.346 32.4053 131.346 32.5128 131.453C32.5128 131.561 32.5128 131.668 32.6204 131.775Z" fill="#54260C"/>
<path d="M10.6774 129.736C10.8926 130.273 11.0001 130.809 11.0001 131.346C11.0001 131.56 10.785 131.775 10.5699 131.775C10.3548 131.775 10.1396 131.56 10.1396 131.346C10.1396 131.131 10.1396 131.024 10.1396 130.916V131.024C10.1396 130.702 10.0321 130.273 9.9245 129.951C9.9245 129.843 9.9245 129.736 9.9245 129.629C9.9245 129.521 10.0321 129.414 10.1396 129.414C10.3548 129.307 10.5699 129.414 10.6774 129.736Z" fill="#54260C"/>
<path d="M12.8287 130.38C12.9363 130.809 13.1514 131.239 13.2589 131.668C13.3665 131.882 13.1514 132.204 12.9363 132.204C12.7211 132.312 12.506 132.097 12.3984 131.882C12.2909 131.453 12.0757 131.024 11.9682 130.595C11.8606 130.38 12.0757 130.058 12.2909 130.058C12.506 129.951 12.7211 130.165 12.8287 130.38Z" fill="#54260C"/>
<path d="M14.8723 131.56C14.8723 132.097 14.8723 132.634 14.8723 133.277C14.8723 133.492 14.6572 133.707 14.4421 133.707C14.227 133.707 14.0118 133.492 14.0118 133.277C14.0118 132.741 14.0118 132.204 14.0118 131.56C14.0118 131.346 14.227 131.131 14.4421 131.131C14.6572 131.131 14.8723 131.346 14.8723 131.56Z" fill="#54260C"/>
<path d="M14.2271 136.175C14.1195 136.497 14.1195 136.712 14.0119 137.034V137.141C14.0119 137.248 14.0119 137.248 14.0119 137.356C14.0119 137.463 14.0119 137.678 14.0119 137.785C14.0119 137.999 13.7968 138.214 13.5817 138.214C13.3666 138.214 13.1514 137.999 13.1514 137.785C13.1514 137.141 13.259 136.497 13.4741 135.853C13.5817 135.639 13.7968 135.424 14.0119 135.531C14.1195 135.639 14.3346 135.96 14.2271 136.175Z" fill="#54260C"/>
<path d="M7.45053 111.17C7.34297 111.814 7.23541 112.351 7.12784 112.995C7.12784 113.209 6.80515 113.317 6.59002 113.317C6.3749 113.209 6.26733 112.995 6.26733 112.78C6.3749 112.136 6.48246 111.6 6.59002 110.956C6.59002 110.741 6.91272 110.634 7.12784 110.634C7.45053 110.741 7.5581 110.956 7.45053 111.17Z" fill="#54260C"/>
<path d="M9.49417 112.029C9.49417 112.351 9.49417 112.565 9.49417 112.887C9.49417 112.995 9.49418 113.102 9.38661 113.209C9.27905 113.317 9.17148 113.317 9.06392 113.317C8.95636 113.317 8.84879 113.317 8.74123 113.209C8.63367 113.102 8.63367 112.995 8.63367 112.887C8.63367 112.565 8.63367 112.351 8.63367 112.029C8.63367 111.922 8.63367 111.814 8.74123 111.707C8.84879 111.6 8.95636 111.6 9.06392 111.6C9.17148 111.6 9.27905 111.6 9.38661 111.707C9.49418 111.814 9.49417 111.922 9.49417 112.029Z" fill="#54260C"/>
<path d="M11.9682 106.985C12.1833 107.414 12.1833 107.951 12.0757 108.487C12.0757 108.595 11.9682 108.702 11.8606 108.702C11.753 108.809 11.6455 108.809 11.5379 108.702C11.4303 108.702 11.3228 108.595 11.3228 108.487C11.2152 108.38 11.2152 108.273 11.3228 108.165C11.3228 108.165 11.3228 108.165 11.3228 108.058V108.165C11.3228 107.951 11.3228 107.736 11.3228 107.522V107.629C11.3228 107.414 11.2152 107.307 11.2152 107.092C11.2152 106.985 11.2152 106.878 11.2152 106.77C11.2152 106.663 11.3228 106.556 11.4303 106.556C11.6455 106.663 11.8606 106.77 11.9682 106.985Z" fill="#54260C"/>
<path d="M59.9415 142.078C59.9415 142.292 59.9415 142.399 59.9415 142.614V142.721C59.9415 142.721 59.9415 142.936 59.9415 142.829C59.9415 142.936 59.9415 142.936 59.9415 143.043C59.9415 143.151 60.0491 143.365 60.0491 143.473C60.0491 143.58 60.0491 143.58 60.1566 143.687C60.1566 143.687 60.1566 143.795 60.2642 143.795C60.3718 144.009 60.3718 144.224 60.1566 144.438C59.9415 144.546 59.6188 144.546 59.5112 144.331C59.1886 143.687 59.081 142.936 59.081 142.185C59.081 141.97 59.2961 141.756 59.5112 141.756C59.7264 141.648 59.9415 141.756 59.9415 142.078Z" fill="#54260C"/>
<path d="M61.4474 142.078C61.4474 142.292 61.4474 142.399 61.4474 142.614V142.507C61.4474 142.721 61.555 143.043 61.6625 143.258V143.151C61.6625 143.258 61.7701 143.258 61.7701 143.365C61.8776 143.58 61.8776 143.902 61.6625 144.009C61.4474 144.117 61.1247 144.117 61.0171 143.902C60.802 143.365 60.5869 142.829 60.6944 142.292C60.6944 142.078 60.9096 141.863 61.1247 141.863C61.2323 141.648 61.4474 141.756 61.4474 142.078Z" fill="#54260C"/>
<path d="M33.2853 34.7677C33.3731 34.7677 33.4608 34.7677 33.4608 34.6801C33.4608 34.6801 33.4608 34.6801 33.5486 34.6801C33.5486 34.6801 33.6364 34.6801 33.6364 34.5925C33.6364 34.5925 33.7241 34.5925 33.7241 34.505C33.8119 34.4174 33.8119 34.4174 33.8997 34.3299C33.8997 34.3299 33.8997 34.2423 33.9874 34.2423C33.9874 34.1547 34.0752 34.1547 34.0752 34.0672C34.0752 34.0672 34.0752 34.0672 34.0752 33.9796V33.8921V33.8045C34.0752 33.8045 34.0752 33.8045 34.0752 33.7169C34.0752 33.6294 34.0752 33.5418 34.1629 33.4543C34.2507 33.3667 34.3385 33.3667 34.4262 33.3667C34.6018 33.3667 34.7773 33.5418 34.7773 33.7169C34.7773 34.0672 34.6018 34.505 34.3385 34.7677C34.0752 35.0304 33.8119 35.2055 33.3731 35.293C33.1976 35.293 33.022 35.2055 33.022 35.1179C33.022 34.9428 33.1098 34.7677 33.2853 34.7677Z" fill="#54260C"/>
<path d="M41.1839 29.5141C41.2716 29.5141 41.3594 29.5141 41.3594 29.6017H41.4472H41.5349C41.6227 29.6017 41.7105 29.6017 41.7105 29.6017H41.7982H41.886H41.9737H42.0615C42.1493 29.6017 42.1493 29.6017 42.237 29.5141C42.237 29.5141 42.3248 29.5141 42.3248 29.4266C42.4126 29.4266 42.4126 29.339 42.5003 29.339C42.6758 29.2514 42.8514 29.339 42.9391 29.4266C43.0269 29.6017 42.9391 29.7768 42.8514 29.8644C42.3248 30.2146 41.6227 30.3022 41.0084 30.127C40.8328 30.0395 40.7451 29.8644 40.8328 29.7768C40.8328 29.6017 41.0084 29.4266 41.1839 29.5141Z" fill="#54260C"/>
<path d="M41.886 37.5696C41.9738 38.0949 42.3248 38.4452 42.6759 38.7079C42.7636 38.7954 42.8514 38.7954 42.9391 38.883C43.0269 38.883 43.2024 38.9705 43.2902 38.9705C43.2024 38.9705 43.2902 38.9705 43.378 38.9705H43.4657C43.5535 38.9705 43.6412 38.9705 43.6412 38.9705H43.729H43.8168C43.9045 38.9705 43.9045 38.9705 43.9923 38.883C44.1678 38.7954 44.3433 38.9705 44.3433 39.0581C44.4311 39.2332 44.2556 39.4083 44.1678 39.4083C42.9391 39.8461 41.4472 38.9705 41.1839 37.6571C41.1839 37.482 41.2717 37.3069 41.3594 37.3069C41.6227 37.3069 41.886 37.3944 41.886 37.5696Z" fill="#54260C"/>
<path d="M126.138 143.518C126.928 143.255 127.805 143.343 128.683 143.605C129.561 143.78 130.35 144.043 131.228 144.218C132.983 144.568 134.739 144.568 136.494 144.393C136.933 144.393 136.933 145.006 136.494 145.006C134.739 145.181 133.071 145.094 131.316 144.831C130.438 144.656 129.648 144.481 128.858 144.218C128.069 143.956 127.191 143.78 126.313 144.043C125.962 144.218 125.787 143.605 126.138 143.518Z" fill="#1C57DF"/>
<path d="M128.595 145.532C130.087 145.532 131.579 145.794 132.983 146.145C133.334 146.232 133.247 146.845 132.808 146.758C131.404 146.407 129.999 146.232 128.507 146.145C128.156 146.145 128.156 145.532 128.595 145.532Z" fill="#1C57DF"/>
<path d="M136.933 105.604C138.249 106.305 139.565 107.005 140.882 107.618C141.233 107.793 140.882 108.318 140.531 108.143C139.214 107.443 137.898 106.742 136.581 106.129C136.23 106.042 136.494 105.429 136.933 105.604Z" fill="#1C57DF"/>
<path d="M137.547 107.968C138.425 108.143 139.214 108.318 140.092 108.494C140.268 108.494 140.355 108.756 140.268 108.844C140.18 109.019 140.092 109.106 139.917 109.019C139.039 108.844 138.249 108.669 137.371 108.494C137.196 108.494 137.108 108.231 137.196 108.143C137.196 107.968 137.371 107.881 137.547 107.968Z" fill="#1C57DF"/>
<path d="M155.45 68.2158C153.695 69.4417 151.677 70.3173 149.57 70.9302C149.658 70.8426 149.746 70.7551 149.834 70.6675C149.921 72.9441 150.185 75.1331 150.448 77.4097C150.624 78.4604 150.711 79.5111 150.975 80.5618C151.238 81.4374 151.764 82.0504 152.554 82.3131C153.432 82.5757 154.397 82.5757 155.275 82.4882C155.714 82.4882 155.714 83.1011 155.275 83.1011C153.607 83.2762 151.501 83.1011 150.711 81.4374C150.448 80.9996 150.36 80.4743 150.273 79.9489C150.185 79.336 150.097 78.7231 150.009 78.1977C149.834 77.0594 149.658 75.8336 149.57 74.6953C149.395 73.3819 149.307 71.9809 149.219 70.6675C149.219 70.4924 149.307 70.4048 149.483 70.4048C151.501 69.7919 153.432 68.9163 155.187 67.778C155.45 67.4278 155.802 67.9531 155.45 68.2158Z" fill="#1C57DF"/>
<path d="M150.36 73.4695C152.291 72.8565 154.222 72.2436 156.153 71.7183C156.504 71.6307 156.679 72.2436 156.328 72.3312C154.397 72.9441 152.467 73.557 150.536 74.0824C150.097 74.1699 149.921 73.557 150.36 73.4695Z" fill="#1C57DF"/>
<path d="M143.954 76.1839C143.164 80.4744 142.286 84.8524 141.145 89.0553C140.004 93.3458 138.6 97.5487 137.02 101.664C136.231 103.678 135.441 105.692 134.914 107.793C134.388 109.982 134.124 112.259 133.949 114.448C133.51 119.001 133.071 123.642 132.632 128.195C132.193 132.748 131.755 137.389 131.316 141.942C131.228 142.555 131.228 143.08 131.14 143.693C131.14 144.131 130.438 144.131 130.526 143.693C130.965 139.052 131.404 134.499 131.842 129.859C132.281 125.218 132.72 120.665 133.159 116.024C133.334 113.835 133.51 111.558 133.949 109.369C134.3 107.18 135.002 105.079 135.792 103.065C136.582 101.051 137.371 98.9496 138.161 96.9357C138.863 94.8343 139.565 92.7328 140.092 90.6314C141.321 86.3409 142.286 82.0505 143.076 77.6724C143.164 77.1471 143.251 76.5341 143.339 76.0088C143.427 75.6585 144.041 75.8337 143.954 76.1839Z" fill="#1C57DF"/>
<path d="M137.108 49.0399C137.81 48.427 138.776 48.3394 139.653 48.1643C142.462 47.6389 145.094 46.5007 147.376 44.837C147.552 44.7494 147.64 44.5743 147.727 44.4868C147.815 44.3116 147.727 44.049 147.727 43.8738C147.464 42.7356 147.113 41.5973 146.674 40.459C145.972 41.86 144.568 42.7356 143.164 43.436C140.794 44.7494 138.249 45.9753 135.704 47.026C136.055 47.7265 136.494 48.427 136.845 49.215L137.108 49.0399Z" fill="#6D1111"/>
<path d="M95.1577 32.3159C98.6682 35.9059 102.179 39.671 103.934 44.3117C104.899 43.7863 105.075 43.6988 105.952 43.0859C106.04 42.9983 106.216 42.9107 106.216 42.7356C106.216 42.5605 106.216 42.4729 106.128 42.3854C104.197 37.8322 99.6336 34.8552 97.1762 30.5647C96.4741 31.0901 95.8598 31.703 95.1577 32.2283V32.3159Z" fill="#6D1111"/>
<path d="M105.952 32.4912C108.322 35.2055 110.253 38.2701 111.569 41.5099C112.008 42.4731 112.359 43.5238 112.71 44.4869C112.798 44.8372 112.271 45.0123 112.096 44.6621C111.043 41.2472 109.463 38.095 107.357 35.2055C106.742 34.4175 106.128 33.6294 105.514 32.929C105.25 32.6663 105.689 32.2285 105.952 32.4912Z" fill="#6D1111"/>
<path d="M130.175 37.1317C131.667 40.0212 133.422 42.7356 135.353 45.3624C135.88 46.1505 136.494 46.851 137.108 47.5514C137.371 47.9017 136.933 48.3395 136.669 47.9892C134.563 45.45 132.632 42.7356 131.053 39.8461C130.614 39.0581 130.175 38.1825 129.736 37.3944C129.473 37.1317 129.999 36.7815 130.175 37.1317Z" fill="#6D1111"/>
<path d="M130.087 35.8184C130.701 34.4174 131.404 32.9289 132.457 31.8781C133.51 30.8274 135.002 30.2145 136.494 30.4772C136.933 30.5647 136.757 31.1777 136.318 31.0901C135.002 30.8274 133.598 31.5279 132.72 32.4911C131.755 33.5418 131.14 34.8552 130.614 36.1686C130.526 36.5189 129.912 36.1686 130.087 35.8184Z" fill="#6D1111"/>
<path d="M127.893 28.9886C128.858 29.514 129.824 29.9518 130.789 30.4771C131.14 30.6523 130.789 31.1776 130.438 31.0025C129.473 30.4771 128.507 30.0393 127.542 29.514C127.279 29.3389 127.542 28.8135 127.893 28.9886Z" fill="#6D1111"/>
<path d="M113.325 32.0533C113.851 32.7537 114.817 33.1915 115.694 33.0164C116.572 32.8413 117.362 32.2284 117.625 31.3528C117.713 31.0025 118.327 31.1777 118.239 31.5279C117.888 32.5786 117.011 33.3667 115.87 33.6294C114.729 33.8045 113.588 33.3667 112.886 32.4911C112.622 32.2284 113.061 31.7906 113.325 32.0533Z" fill="#6D1111"/>
<path d="M120.433 53.5932C124.207 53.3306 127.981 53.3306 131.755 53.6808C132.018 53.6808 132.193 54.0311 132.018 54.2062C129.999 56.3952 126.664 55.3445 124.383 56.833C124.295 56.6579 124.295 56.4827 124.207 56.2201C127.454 56.1325 130.614 56.0449 133.861 56.0449C134.3 56.0449 134.3 56.6579 133.861 56.6579C130.614 56.7454 127.454 56.833 124.207 56.833C123.856 56.833 123.768 56.3952 124.032 56.2201C125.172 55.5196 126.664 55.3445 127.981 55.1693C129.297 54.9942 130.614 54.7315 131.579 53.7684C131.667 53.9435 131.755 54.1186 131.842 54.2937C128.069 53.9435 124.295 53.8559 120.521 54.2062C119.995 54.2937 119.995 53.5932 120.433 53.5932Z" fill="#6D1111"/>
<path d="M131.316 65.8518C132.457 64.801 133.861 64.013 135.353 63.5752C135.704 63.4876 135.88 64.1006 135.529 64.1881C134.124 64.6259 132.896 65.3264 131.842 66.2896C131.491 66.5522 131.053 66.1144 131.316 65.8518Z" fill="#6D1111"/>
<path d="M133.247 78.3728C132.106 79.336 130.614 79.6862 129.21 80.2116C127.805 80.7369 126.401 81.4374 125.611 82.7508C125.524 82.926 125.436 83.0135 125.524 83.1886C125.611 83.5389 126.05 83.6264 126.401 83.5389C128.771 83.3638 131.14 81.7001 133.247 82.6633V78.3728Z" fill="#FED5B7"/>
<path d="M126.577 41.1595C127.191 42.1227 127.718 43.0858 128.156 44.1366C128.244 44.3117 128.069 44.4868 127.981 44.4868C127.805 44.5744 127.63 44.3992 127.63 44.3117C127.279 43.3485 126.752 42.3853 126.138 41.4222C126.05 41.2471 126.138 41.0719 126.226 40.9844C126.313 40.9844 126.489 41.0719 126.577 41.1595Z" fill="#6D1111"/>
<path d="M128.332 41.7725C128.595 42.2979 128.858 42.8232 129.122 43.3486C129.21 43.5237 129.21 43.6988 129.034 43.7864C128.858 43.874 128.683 43.874 128.595 43.6988C128.332 43.1735 128.069 42.6481 127.805 42.1228C127.718 41.9476 127.718 41.7725 127.893 41.685C128.069 41.5974 128.244 41.5974 128.332 41.7725Z" fill="#6D1111"/>
<path d="M130.35 44.3992C130.438 44.6619 130.526 44.9246 130.701 45.1873C130.701 45.2748 130.701 45.3624 130.701 45.45C130.701 45.5375 130.614 45.5375 130.526 45.6251C130.438 45.6251 130.35 45.6251 130.263 45.6251C130.175 45.5375 130.175 45.5375 130.087 45.45C129.999 45.1873 129.912 44.9246 129.736 44.6619C129.736 44.5744 129.736 44.4868 129.736 44.3992C129.736 44.3117 129.824 44.3117 129.912 44.2241C129.999 44.2241 130.087 44.2241 130.175 44.2241C130.263 44.3117 130.263 44.3117 130.35 44.3992Z" fill="#6D1111"/>
<path d="M136.055 38.7078C136.406 39.3207 136.669 40.0212 137.02 40.6341C137.108 40.8093 137.108 40.9844 136.933 41.0719C136.757 41.1595 136.582 41.1595 136.494 40.9844C136.143 40.3715 135.88 39.671 135.528 39.0581C135.441 38.8829 135.441 38.7078 135.616 38.6203C135.792 38.5327 135.967 38.6203 136.055 38.7078Z" fill="#6D1111"/>
<path d="M137.547 39.9337C137.723 40.1964 137.898 40.4591 138.074 40.8094C138.161 40.9845 138.074 41.1596 137.986 41.2472C137.81 41.3347 137.635 41.2472 137.547 41.1596C137.371 40.8969 137.196 40.6342 137.02 40.284C136.933 40.1089 137.02 39.9337 137.108 39.8462C137.284 39.6711 137.459 39.7586 137.547 39.9337Z" fill="#6D1111"/>
<path d="M138.951 36.6064C138.951 36.694 138.951 36.7815 138.951 36.7815V36.8691C138.951 36.9567 139.039 37.1318 139.039 37.2193V37.3069C139.039 37.3945 139.127 37.3945 139.127 37.482C139.127 37.5696 139.214 37.5696 139.214 37.6571C139.214 37.6571 139.214 37.7447 139.302 37.7447C139.39 37.8323 139.39 38.0949 139.302 38.1825C139.214 38.2701 138.951 38.2701 138.863 38.1825C138.425 37.7447 138.161 37.1318 138.161 36.4313C138.161 36.2562 138.337 36.0811 138.512 36.0811C138.863 36.2562 138.951 36.4313 138.951 36.6064Z" fill="#6D1111"/>
<path d="M129.912 70.755C130.965 70.4048 132.018 70.0545 132.983 69.7043C133.159 69.6167 133.334 69.7918 133.334 69.8794C133.422 70.0545 133.247 70.2296 133.159 70.2296C132.106 70.5799 131.053 70.9301 130.087 71.2804C129.912 71.3679 129.736 71.1928 129.736 71.1053C129.648 71.0177 129.824 70.8426 129.912 70.755Z" fill="#1C57DF"/>
<path d="M131.842 71.8057C132.72 71.4554 133.685 71.3678 134.563 71.4554C134.739 71.4554 134.914 71.543 134.914 71.8057C134.914 71.9808 134.739 72.1559 134.563 72.1559C133.685 72.0683 132.808 72.1559 132.018 72.5061C131.842 72.5937 131.667 72.4186 131.667 72.331C131.579 71.9808 131.755 71.8932 131.842 71.8057Z" fill="#1C57DF"/>
<path d="M140.092 147.983C143.252 146.32 146.323 144.656 149.483 142.905C149.834 142.73 150.185 143.255 149.834 143.43C146.674 145.094 143.603 146.758 140.443 148.509C140.092 148.771 139.741 148.159 140.092 147.983Z" fill="#113EA6"/>
<path d="M141.847 145.269C143.866 143.956 145.884 142.642 148.078 141.504C148.429 141.329 148.781 141.854 148.429 142.029C146.323 143.168 144.217 144.393 142.198 145.794C141.847 145.97 141.584 145.444 141.847 145.269Z" fill="#113EA6"/>
<path d="M141.408 132.573C142.198 135.9 143.427 139.052 145.094 142.029C145.27 142.38 144.743 142.73 144.568 142.38C142.9 139.315 141.672 136.163 140.794 132.748C140.706 132.31 141.321 132.223 141.408 132.573Z" fill="#113EA6"/>
<path d="M115.431 165.846C120.258 165.758 124.997 165.233 129.648 164.357C130.965 164.095 132.281 163.832 133.598 163.482C133.949 163.394 134.124 164.007 133.773 164.095C129.122 165.233 124.295 165.933 119.468 166.284C118.064 166.371 116.747 166.459 115.343 166.459C115.08 166.459 115.08 165.846 115.431 165.846Z" fill="white"/>
<path d="M133.773 161.205C132.369 161.643 131.316 162.956 131.14 164.357C131.14 164.532 130.965 164.707 130.789 164.707C130.614 164.707 130.438 164.532 130.438 164.357C130.614 162.606 131.842 161.117 133.51 160.592C133.949 160.504 134.124 161.117 133.773 161.205Z" fill="white"/>
<path d="M119.994 163.744C120.872 164.007 121.75 164.445 122.364 165.145C122.452 165.233 122.452 165.495 122.364 165.583C122.276 165.671 122.013 165.671 121.925 165.583C121.399 164.97 120.697 164.532 119.819 164.357C119.643 164.357 119.556 164.095 119.643 164.007C119.643 163.744 119.819 163.657 119.994 163.744Z" fill="white"/>
<path d="M130.087 156.827L129.999 156.914C129.999 156.914 129.912 157.002 129.912 157.09V157.177V157.265C129.912 157.265 129.912 157.265 129.912 157.352C129.912 157.527 129.912 157.615 129.912 157.703V157.79C129.912 157.878 129.999 157.878 129.999 157.965C129.999 157.965 129.999 158.053 130.087 158.053L130.175 158.14L130.263 158.228C130.263 158.228 130.35 158.228 130.35 158.315C130.35 158.315 130.438 158.315 130.438 158.403H130.526C130.526 158.403 130.526 158.403 130.614 158.403C130.701 158.403 130.701 158.403 130.789 158.491H130.877C130.877 158.491 130.877 158.491 130.965 158.491C131.053 158.491 131.053 158.491 131.14 158.491H131.228C131.14 158.491 131.228 158.491 131.316 158.491C131.404 158.491 131.404 158.491 131.491 158.403C131.491 158.403 131.491 158.403 131.579 158.403C131.579 158.403 131.667 158.403 131.667 158.315C131.667 158.315 131.667 158.315 131.755 158.228C131.755 158.228 131.755 158.228 131.842 158.14C131.842 158.14 131.93 158.053 131.842 158.053C131.842 157.965 131.93 157.965 131.93 157.878C131.93 157.878 131.93 157.79 132.018 157.79C132.018 157.703 132.018 157.703 132.106 157.615V157.527C132.106 157.615 132.106 157.527 132.106 157.44C132.106 157.352 132.106 157.352 132.106 157.265V157.177C132.106 157.09 132.106 157.09 132.018 157.002C132.018 157.002 132.018 156.914 131.93 156.914C131.93 156.914 131.93 156.827 131.842 156.827C131.842 156.827 131.755 156.827 131.755 156.739C131.667 156.739 131.667 156.652 131.579 156.652H131.491H131.404C131.316 156.652 131.228 156.652 131.228 156.652H131.14H131.053C130.965 156.652 130.965 156.652 130.877 156.739C130.877 156.739 130.877 156.739 130.789 156.739C130.789 156.739 130.701 156.739 130.701 156.827C130.701 156.827 130.614 156.827 130.614 156.914C130.614 156.914 130.526 156.914 130.526 157.002C130.526 157.09 130.438 157.09 130.438 157.177C130.35 157.352 130.175 157.352 129.999 157.265C129.824 157.177 129.824 157.002 129.912 156.827C130.175 156.214 130.877 155.951 131.491 156.039C131.842 156.039 132.193 156.214 132.369 156.477C132.632 156.739 132.72 157.09 132.72 157.44C132.808 158.14 132.369 158.841 131.755 159.103C131.14 159.366 130.35 159.103 129.824 158.666C129.21 158.053 129.21 156.914 129.912 156.389C129.999 156.302 130.263 156.302 130.35 156.389C130.175 156.564 130.175 156.739 130.087 156.827Z" fill="white"/>
<path d="M143.515 167.334C147.201 164.795 150.975 162.256 154.046 158.929C154.924 157.965 155.714 157.002 156.416 155.951C156.679 155.601 157.206 155.951 156.943 156.302C154.31 160.067 150.711 163.044 147.025 165.671C145.972 166.459 144.919 167.159 143.778 167.86C143.515 168.122 143.164 167.597 143.515 167.334Z" fill="white"/>
<path d="M155.626 153.587C154.748 154.813 154.573 156.477 155.275 157.878C155.451 158.228 154.924 158.578 154.748 158.228C154.046 156.652 154.134 154.726 155.1 153.325C155.363 152.974 155.889 153.325 155.626 153.587Z" fill="white"/>
<path d="M145.182 163.657C146.148 163.569 147.201 163.832 147.903 164.532C147.991 164.62 147.991 164.883 147.903 164.97C147.815 165.058 147.552 165.058 147.464 164.97C146.85 164.445 145.972 164.182 145.182 164.27C145.007 164.27 144.831 164.095 144.831 163.92C144.831 163.832 145.007 163.657 145.182 163.657Z" fill="white"/>
<path d="M150.273 153.237C150.185 153.237 150.185 153.325 150.097 153.325C150.009 153.412 150.009 153.412 150.009 153.5C150.009 153.5 150.009 153.5 150.009 153.587V153.675V153.762C150.009 153.85 150.009 153.85 150.009 153.938C150.009 154.2 150.185 154.463 150.36 154.638C150.536 154.813 150.799 154.988 151.15 154.988C151.238 154.988 151.238 154.988 151.326 154.988C151.413 154.988 151.501 154.988 151.589 154.988C151.589 154.988 151.589 154.988 151.677 154.988H151.764C151.852 154.988 151.94 154.988 152.028 154.901H152.116C152.116 154.901 152.203 154.901 152.203 154.813C152.291 154.726 152.291 154.726 152.379 154.726C152.467 154.638 152.554 154.55 152.642 154.375C152.73 154.288 152.642 154.288 152.73 154.2C152.73 154.113 152.818 154.025 152.818 153.938C152.818 153.938 152.818 153.938 152.818 153.85V153.762C152.818 153.675 152.818 153.587 152.818 153.5C152.818 153.412 152.818 153.412 152.818 153.325C152.818 153.237 152.818 153.149 152.73 153.062C152.73 153.062 152.73 153.062 152.73 152.974C152.73 152.974 152.73 152.887 152.642 152.887C152.642 152.887 152.642 152.799 152.554 152.799C152.554 152.799 152.554 152.799 152.554 152.712C152.467 152.537 152.379 152.537 152.203 152.449C152.116 152.449 152.116 152.449 152.028 152.361C151.94 152.361 151.852 152.274 151.764 152.274C151.764 152.274 151.764 152.274 151.677 152.274C151.589 152.274 151.589 152.274 151.501 152.274H151.413C151.413 152.274 151.413 152.274 151.326 152.274C151.238 152.274 151.15 152.274 151.062 152.361C150.975 152.361 150.975 152.361 150.887 152.449H150.799C150.711 152.449 150.624 152.537 150.536 152.624C150.536 152.624 150.448 152.712 150.36 152.799L150.273 152.887C150.273 152.887 150.273 152.887 150.273 152.974L150.185 153.062V153.149C150.097 153.325 150.009 153.412 149.834 153.325C149.658 153.325 149.57 153.062 149.658 152.974C150.009 152.186 150.799 151.661 151.677 151.749C152.554 151.749 153.256 152.361 153.432 153.237C153.607 154.025 153.344 154.988 152.554 155.426C151.852 155.864 150.887 155.689 150.185 155.163C149.834 154.901 149.57 154.463 149.57 153.938C149.57 153.5 149.746 152.887 150.185 152.712C150.36 152.624 150.536 152.624 150.624 152.799C150.448 152.974 150.448 153.149 150.273 153.237Z" fill="white"/>
</svg>
