<svg width="56" height="56" viewBox="0 0 56 56" fill="none" xmlns="http://www.w3.org/2000/svg">
<path fill-rule="evenodd" clip-rule="evenodd" d="M30.3385 44.3324V41.8336C34.9662 41.1717 38.9681 38.57 41.4942 34.8785C47.8251 34.0046 51.3346 28.5194 51.3346 21.0007V14.0007C51.3346 11.4233 49.2453 9.33398 46.668 9.33398H43.7152C42.9085 7.93822 41.3999 6.99902 39.6719 6.99902H16.3385C14.6105 6.99902 13.1019 7.93822 12.2953 9.33398H9.33073C6.7534 9.33398 4.66406 11.4233 4.66406 14.0007V21.0007C4.66406 28.5245 8.1784 34.012 14.5175 34.8803C17.0436 38.5708 21.045 41.1718 25.6719 41.8336V44.3324h13.3385C20.7612 44.3324 18.6719 46.4217 18.6719 48.999H37.3385C37.3385 46.4217 35.2492 44.3324 32.6719 44.3324H30.3385ZM9.33073 14.0007H11.6719V25.6657C11.6719 26.7375 11.7751 27.7851 11.9722 28.7993C10.2448 27.2516 9.33073 24.5804 9.33073 21.0007V14.0007ZM44.3385 14.0007V25.6657C44.3385 26.733 44.2362 27.7764 44.0407 28.7865C45.7589 27.237 46.668 24.5706 46.668 21.0007V14.0007H44.3385ZM16.3359 25.666V11.666H39.6693V25.666C39.6693 32.1093 34.4459 37.3327 28.0026 37.3327C21.5593 37.3327 16.3359 32.1093 16.3359 25.666Z" fill="#43B760"/>
</svg>
