<?xml version="1.0" standalone="no"?>
<!DOCTYPE svg PUBLIC "-//W3C//DTD SVG 20010904//EN"
 "http://www.w3.org/TR/2001/REC-SVG-20010904/DTD/svg10.dtd">
<svg version="1.0" xmlns="http://www.w3.org/2000/svg"
 width="1280.000000pt" height="602.000000pt" viewBox="0 0 1280.000000 602.000000"
 preserveAspectRatio="xMidYMid meet">
<metadata>
Created by potrace 1.15, written by Peter Selinger 2001-2017
</metadata>
<g transform="translate(0.000000,602.000000) scale(0.100000,-0.100000)"
fill="#4caf50" stroke="none">
<path d="M623 5354 c-20 -20 -24 -32 -19 -55 3 -16 4 -29 3 -29 -1 0 -29 11
-62 25 -66 27 -139 32 -192 13 -29 -10 -47 -37 -25 -38 7 -1 281 -39 317 -44
11 -2 40 -9 64 -15 25 -7 61 -11 81 -9 l37 3 -14 -42 c-10 -29 -28 -52 -53
-70 -56 -41 -83 -86 -88 -148 -5 -64 0 -88 30 -135 12 -19 22 -39 23 -45 0
-14 64 -54 104 -65 43 -11 104 1 140 28 36 26 92 123 98 169 9 67 -13 123 -69
175 -39 37 -51 56 -55 86 l-5 39 93 -13 c52 -7 109 -18 127 -24 18 -7 49 -10
68 -7 27 5 33 3 26 -6 -5 -7 -13 -31 -17 -55 -6 -37 -4 -47 16 -68 26 -28 55
-31 87 -8 42 29 19 114 -31 114 -9 0 -19 5 -22 10 -8 13 7 13 160 -6 109 -13
142 -21 200 -50 92 -45 143 -51 221 -26 48 15 73 17 125 11 35 -4 114 -11 175
-15 l111 -7 -16 -43 c-11 -29 -31 -53 -59 -73 -86 -63 -107 -171 -53 -272 16
-30 45 -67 66 -84 32 -26 45 -30 99 -30 52 0 70 5 105 28 24 16 40 31 37 34
-3 3 6 19 19 35 27 31 45 86 45 134 0 46 -46 130 -85 154 -24 15 -35 30 -40
56 -3 19 -8 41 -11 49 -4 10 9 15 48 19 142 14 347 37 385 42 l43 6 -6 -46
c-5 -37 -3 -50 11 -66 40 -44 121 -8 113 50 -4 26 0 29 49 44 29 9 55 22 59
28 5 8 1 9 -12 3 -79 -34 -104 -38 -135 -22 l-31 14 69 8 c37 4 84 9 103 10
19 2 141 17 270 33 129 17 269 31 310 31 41 1 86 5 99 8 20 5 23 3 18 -11 -4
-10 -7 -19 -7 -21 0 -2 -20 -18 -44 -34 -56 -39 -86 -99 -86 -170 0 -50 26
-121 50 -136 6 -4 8 -10 5 -15 -8 -13 55 -57 100 -69 47 -12 106 -1 144 27 36
26 92 123 98 169 9 66 -13 123 -68 175 -35 33 -52 57 -56 81 l-5 34 183 21
184 22 150 -20 c196 -27 183 -25 234 -39 25 -7 62 -11 83 -9 24 2 36 0 34 -7
-3 -5 -10 -27 -17 -47 -7 -21 -16 -38 -21 -38 -17 0 -92 -76 -105 -107 -32
-78 8 -224 75 -271 63 -45 154 -47 211 -4 39 29 93 126 99 177 7 64 -20 126
-73 172 -34 30 -46 47 -51 79 l-6 41 93 -13 c52 -7 109 -18 127 -24 18 -7 49
-10 68 -7 27 5 33 3 26 -6 -5 -7 -9 -19 -9 -27 0 -8 -4 -26 -7 -40 -16 -60 68
-106 109 -60 34 37 10 110 -36 110 -10 0 -21 5 -24 10 -8 14 18 13 165 -6 102
-13 138 -22 195 -50 92 -45 143 -51 221 -26 48 15 73 17 125 11 35 -4 114 -11
176 -15 l112 -7 -17 -43 c-11 -28 -32 -53 -60 -74 -59 -42 -86 -103 -80 -180
2 -34 12 -69 23 -86 11 -16 19 -32 18 -36 -2 -3 15 -22 37 -42 63 -57 148 -61
221 -10 21 14 37 30 34 34 -3 4 3 14 12 21 26 22 53 90 53 135 0 55 -43 138
-84 164 -27 16 -35 29 -43 69 l-10 50 51 5 c130 13 345 37 384 43 l44 6 -7
-47 c-9 -58 11 -86 61 -86 39 0 69 36 62 74 -4 21 1 25 48 40 29 9 56 22 60
28 5 8 1 9 -12 3 -79 -34 -104 -38 -135 -22 l-31 14 69 8 c37 4 84 9 103 10
19 2 141 17 270 33 129 17 269 31 310 31 41 1 85 4 97 8 30 7 30 -12 -1 -40
-14 -12 -39 -35 -57 -51 -67 -63 -78 -153 -29 -253 33 -68 64 -95 125 -112 86
-22 161 20 213 119 52 102 38 188 -43 258 -31 26 -46 48 -50 73 l-7 36 184 21
183 22 150 -20 c83 -11 162 -22 177 -24 14 -2 43 -9 63 -16 20 -7 54 -10 76
-8 24 2 37 0 35 -7 -3 -5 -10 -27 -17 -47 -7 -21 -16 -38 -20 -38 -18 0 -81
-65 -101 -103 -27 -54 -22 -137 12 -193 14 -21 25 -43 25 -49 0 -5 21 -22 47
-38 36 -22 59 -29 97 -29 66 0 107 24 154 93 70 102 60 211 -28 286 -34 30
-46 47 -51 79 l-6 41 93 -13 c52 -7 109 -18 127 -24 18 -7 49 -10 68 -7 25 4
32 3 27 -6 -4 -7 -9 -21 -10 -32 0 -11 -4 -29 -8 -40 -4 -14 1 -30 15 -48 37
-46 96 -31 114 29 8 26 -27 74 -54 74 -10 0 -22 5 -25 10 -8 14 17 13 168 -6
108 -14 140 -22 193 -50 87 -45 137 -51 221 -26 55 16 79 19 127 12 33 -5 110
-12 172 -16 l112 -7 -14 -42 c-11 -29 -27 -51 -58 -72 -89 -63 -110 -168 -55
-274 45 -85 86 -114 164 -114 51 0 69 5 104 28 23 15 39 31 37 36 -3 5 3 16
14 26 78 70 56 245 -38 300 -22 13 -31 29 -38 66 l-10 48 50 5 c129 13 345 37
384 43 l44 6 -7 -47 c-9 -58 11 -86 61 -86 39 0 69 36 62 74 -4 21 0 26 36 35
23 5 50 17 61 26 l20 17 -20 -8 c-11 -3 -38 -13 -59 -21 -34 -12 -44 -12 -74
0 l-36 14 70 8 c38 4 85 9 104 10 19 2 141 17 270 33 129 17 269 31 310 31 41
1 86 5 99 8 21 5 22 3 16 -18 -4 -13 -12 -26 -18 -28 -24 -9 -91 -79 -104
-108 -37 -89 11 -231 94 -280 72 -42 165 -32 215 23 34 39 78 136 78 175 0 58
-27 115 -75 157 -31 26 -46 48 -50 73 l-7 36 149 17 c200 24 213 26 213 42 0
8 -8 14 -17 14 -9 0 -36 10 -61 21 -62 31 -140 22 -232 -25 -52 -26 -92 -38
-152 -46 -112 -14 -108 -15 -108 23 0 40 -25 67 -63 67 -49 0 -86 -67 -55 -98
22 -22 -3 -25 -115 -12 -124 14 -193 6 -255 -30 -45 -27 -48 -25 -18 11 58 69
15 169 -74 169 -52 0 -76 -13 -95 -50 -25 -49 -19 -88 20 -127 20 -20 34 -37
33 -38 -2 -1 -57 -9 -123 -17 -115 -15 -122 -14 -158 4 -84 42 -181 32 -311
-34 l-60 -30 -171 6 c-240 10 -229 9 -208 24 9 6 20 12 24 12 3 0 12 13 19 30
10 25 10 34 -4 55 -46 70 -142 20 -116 -61 7 -20 9 -38 6 -41 -3 -3 -85 4
-183 16 -98 12 -181 21 -185 21 -19 0 -5 17 22 27 71 27 78 135 11 180 -47 32
-83 29 -126 -8 -30 -26 -35 -37 -35 -74 0 -28 7 -51 21 -69 12 -15 19 -29 17
-31 -2 -2 -26 2 -53 11 -33 10 -68 12 -106 8 -65 -7 -250 11 -325 32 -29 8
-76 13 -105 13 -53 -1 -158 8 -191 17 -12 4 -15 13 -11 42 5 43 -10 68 -49 77
-40 10 -83 -34 -74 -77 5 -26 3 -29 -12 -23 -117 49 -133 51 -264 29 -28 -4
-49 0 -84 16 -64 32 -139 24 -236 -24 -50 -25 -97 -39 -148 -46 -113 -14 -110
-15 -110 23 0 40 -25 67 -63 67 -50 0 -87 -66 -55 -98 22 -22 -3 -25 -115 -12
-124 14 -193 6 -255 -30 -45 -27 -48 -25 -18 11 60 71 15 169 -79 169 -64 0
-105 -39 -105 -100 0 -35 6 -48 35 -77 20 -20 34 -37 33 -38 -2 -1 -57 -9
-123 -17 -115 -15 -122 -14 -158 4 -56 28 -124 33 -188 14 -65 -18 -153 -56
-146 -62 2 -2 29 7 60 21 31 14 83 31 117 37 51 10 69 9 116 -6 31 -10 54 -20
51 -22 -2 -3 -78 -13 -169 -24 -130 -16 -203 -19 -358 -15 -224 6 -250 8 -250
16 0 4 10 9 23 13 31 7 50 48 37 80 -19 52 -85 58 -116 11 -13 -20 -14 -30 -4
-60 7 -20 9 -39 6 -42 -5 -5 -377 36 -384 42 -2 2 13 11 33 20 37 18 65 59 65
95 0 53 -57 110 -110 110 -29 0 -76 -29 -89 -54 -21 -45 -21 -63 4 -109 13
-26 23 -47 22 -47 -1 0 -24 7 -52 15 -34 11 -68 13 -106 9 -65 -7 -250 11
-325 32 -29 8 -76 13 -105 13 -53 -1 -158 8 -191 17 -12 4 -15 13 -11 42 5 43
-10 68 -49 77 -40 10 -83 -34 -74 -77 5 -26 3 -29 -12 -23 -117 49 -133 51
-264 29 -28 -4 -49 0 -84 16 -64 32 -139 24 -236 -24 -50 -25 -97 -39 -148
-46 -113 -14 -110 -15 -110 23 0 61 -67 90 -110 47 -22 -22 -25 -51 -9 -82 11
-21 10 -21 -67 -12 -142 16 -222 11 -287 -19 l-58 -27 25 31 c30 35 33 76 11
119 -19 37 -43 50 -95 50 -59 0 -100 -42 -100 -100 0 -35 6 -48 35 -77 20 -20
34 -37 33 -38 -2 -1 -57 -9 -123 -17 -115 -15 -122 -14 -158 4 -84 42 -177 32
-316 -34 l-64 -31 -166 7 c-211 9 -221 10 -221 17 0 4 11 10 24 13 14 3 28 17
34 33 27 78 -69 126 -115 57 -14 -22 -15 -31 -4 -61 7 -19 10 -37 7 -40 -5 -6
-377 36 -384 42 -2 2 12 10 30 19 37 18 68 61 68 96 0 53 -57 110 -110 110
-61 0 -116 -68 -104 -129 4 -17 13 -36 20 -42 8 -6 14 -17 14 -24 0 -10 -10
-10 -47 1 -32 10 -67 12 -104 8 -64 -7 -250 11 -324 31 -28 8 -80 14 -116 14
-35 0 -80 2 -99 5 -111 17 -113 17 -101 29 12 12 15 56 3 73 -9 13 -46 34 -62
34 -6 0 -22 -12 -37 -26z m3557 -39 c14 -8 23 -15 20 -16 -13 -4 -270 -34
-270 -32 0 5 84 46 110 54 41 12 113 9 140 -6z m3950 0 c14 -8 23 -15 20 -16
-25 -8 -268 -33 -261 -26 4 4 35 19 67 32 66 28 136 31 174 10z m3950 0 c14
-8 23 -15 20 -16 -25 -8 -268 -33 -261 -26 4 4 35 19 67 32 66 28 136 31 174
10z m-11554 -24 c15 -9 4 -10 -51 -5 -93 9 -123 27 -34 21 37 -3 75 -10 85
-16z m3950 0 c15 -9 4 -10 -51 -5 -93 9 -123 27 -34 21 37 -3 75 -10 85 -16z
m3950 0 c15 -8 3 -10 -51 -5 -93 9 -123 27 -34 21 37 -3 75 -10 85 -16z
m-4981 -70 c22 -5 36 -9 30 -10 -5 -1 -64 -8 -130 -16 -141 -18 -146 -18 -120
-3 54 32 146 44 220 29z m3955 0 c43 -7 40 -8 -55 -19 -195 -25 -192 -24 -170
-10 51 32 139 43 225 29z m3950 0 c25 -5 40 -9 35 -10 -6 0 -65 -8 -130 -16
-146 -18 -157 -18 -130 -3 54 32 142 43 225 29z m-9891 -47 c10 -9 -56 -3 -69
7 -11 7 -4 8 25 3 22 -4 42 -8 44 -10z m3950 0 c10 -9 -56 -3 -69 7 -11 7 -4
8 25 3 22 -4 42 -8 44 -10z m3950 0 c2 -2 -10 -4 -27 -4 -17 0 -34 4 -37 10
-5 9 53 3 64 -6z m-6585 -23 c16 -6 26 -14 23 -17 -5 -6 -293 -43 -327 -43
-24 0 75 48 133 64 56 16 125 14 171 -4z m7912 -4 l28 -15 -40 -6 c-78 -12
-307 -36 -311 -33 -5 6 108 55 153 66 50 13 134 7 170 -12z m-8913 -51 c59 -8
110 -16 113 -18 2 -3 -22 -11 -54 -18 -51 -10 -67 -10 -113 4 -30 9 -65 23
-79 31 l-25 14 25 0 c14 0 74 -6 133 -13z m3950 0 c59 -8 110 -16 113 -18 2
-3 -22 -11 -54 -18 -51 -10 -67 -10 -113 4 -30 9 -65 23 -79 31 l-25 14 25 0
c14 0 74 -6 133 -13z m3955 0 c57 -8 106 -17 109 -19 2 -3 -21 -10 -51 -17
-61 -12 -96 -8 -163 21 -77 33 -55 36 105 15z"/>
<path d="M2521 1840 c-49 -12 -82 -40 -118 -100 -37 -60 -43 -117 -19 -173 13
-32 78 -97 97 -97 8 0 49 -80 49 -96 0 -2 -39 -4 -87 -4 -49 0 -128 -5 -176
-10 -73 -9 -97 -8 -144 6 -79 23 -153 15 -231 -23 -47 -24 -82 -33 -143 -39
l-80 -7 12 26 c17 38 3 92 -32 121 -86 73 -208 -17 -167 -122 l15 -38 -121 1
c-164 2 -176 3 -176 19 0 7 17 25 39 39 93 62 106 187 27 276 -11 13 -14 20
-6 16 13 -8 13 -6 2 8 -24 29 -96 57 -148 57 -83 0 -133 -39 -179 -137 -34
-74 -6 -171 63 -218 l37 -25 -30 4 c-16 3 -77 7 -135 10 -114 6 -172 17 -152
30 19 11 14 64 -8 86 -26 26 -51 25 -85 -2 -23 -18 -26 -27 -22 -55 3 -18 4
-33 1 -33 -3 0 -23 9 -46 21 -53 27 -147 36 -199 19 -36 -12 -55 -40 -26 -40
6 -1 75 -10 152 -21 77 -11 152 -21 167 -23 14 -2 43 -9 63 -16 20 -7 54 -10
75 -8 l38 3 -15 -40 c-9 -22 -22 -45 -29 -51 -8 -6 -49 -14 -92 -18 -42 -4
-87 -10 -100 -13 -41 -10 -23 -30 38 -44 48 -10 59 -16 54 -29 -4 -8 -9 -40
-11 -71 -4 -45 -1 -66 18 -105 38 -77 41 -81 83 -109 35 -23 49 -26 101 -23
67 4 113 29 139 76 42 76 56 110 56 145 0 47 -23 104 -56 138 -16 16 -22 29
-15 33 6 4 62 9 126 13 l115 6 -6 -29 c-7 -36 27 -84 60 -84 57 0 88 69 50
111 -15 17 -14 19 11 25 15 4 71 2 124 -5 78 -9 112 -19 179 -52 45 -23 82
-45 82 -50 0 -17 65 -49 99 -49 24 0 42 9 65 33 18 17 35 38 37 46 4 11 29 11
145 2 77 -6 152 -11 166 -11 l26 0 -18 -46 c-9 -26 -26 -51 -36 -57 -124 -66
-138 -236 -29 -357 29 -32 99 -54 147 -46 41 7 108 43 108 58 0 4 14 27 30 50
46 65 51 131 15 203 -16 34 -40 65 -60 78 -26 17 -35 32 -43 69 l-9 48 31 4
c17 2 105 12 196 21 91 9 184 19 207 22 l43 6 -6 -47 c-5 -37 -3 -50 11 -66
39 -43 120 -9 113 48 -3 24 3 29 52 50 96 42 123 49 194 57 l68 7 -16 -23
c-37 -54 -6 -130 61 -148 98 -27 173 80 109 156 l-25 29 51 -25 c38 -18 71
-26 133 -29 l83 -4 -24 -46 c-31 -57 -32 -136 -4 -192 11 -21 24 -42 30 -45 6
-4 8 -11 5 -16 -3 -5 15 -22 41 -39 58 -36 125 -40 183 -11 36 19 72 51 55 51
-4 0 2 10 14 23 55 58 66 146 28 222 l-25 48 73 -6 c49 -3 90 -13 122 -30 104
-52 201 -64 262 -33 37 19 69 20 139 4 42 -10 52 -16 47 -28 -4 -8 -9 -41 -12
-72 -4 -49 0 -66 28 -122 39 -82 89 -116 166 -116 71 0 120 32 162 103 57 95
53 181 -9 252 -17 19 -25 36 -20 40 6 3 62 8 126 12 l115 6 -6 -29 c-7 -37 27
-84 61 -84 57 0 88 68 50 110 -17 18 -16 19 10 26 15 4 71 2 124 -5 78 -9 112
-19 179 -52 45 -23 82 -45 82 -50 0 -17 65 -49 98 -49 25 0 43 9 66 33 18 17
35 38 37 46 4 11 29 11 145 2 77 -6 152 -11 166 -11 l26 0 -18 -46 c-9 -26
-26 -51 -36 -57 -34 -18 -66 -51 -86 -91 -27 -53 -22 -148 11 -194 12 -18 19
-32 15 -32 -4 0 5 -13 21 -30 39 -41 104 -64 155 -56 39 6 110 43 110 58 0 4
15 28 33 54 28 40 32 54 32 107 0 77 -24 130 -76 166 -30 21 -39 35 -47 73
l-9 48 31 4 c17 2 105 12 196 21 91 9 184 19 207 22 l43 6 -6 -47 c-5 -37 -3
-50 11 -66 40 -44 121 -8 113 50 -4 26 0 29 49 44 29 9 55 22 59 28 5 8 1 9
-12 3 -70 -29 -104 -34 -135 -21 l-32 13 54 7 c30 3 81 8 114 11 33 3 87 9
120 15 33 5 68 10 78 10 17 0 17 -2 3 -22 -37 -53 -6 -129 61 -147 98 -27 173
80 109 156 l-25 29 49 -24 c36 -18 72 -26 134 -29 l84 -6 -24 -45 c-34 -65
-32 -128 7 -209 24 -49 40 -69 73 -88 80 -47 193 -23 238 50 65 107 73 163 33
241 -14 27 -25 49 -25 50 0 0 33 -3 72 -8 47 -5 97 -18 141 -39 37 -17 87 -33
110 -35 l42 -3 -40 8 c-43 10 -140 49 -134 55 8 6 278 -27 274 -34 -3 -4 -25
-13 -50 -19 -25 -6 -45 -13 -45 -16 0 -8 64 7 94 23 29 14 52 13 157 -4 l37
-6 -15 -30 c-26 -52 -13 -137 30 -203 52 -78 86 -97 163 -93 79 5 118 33 162
118 47 93 39 175 -24 241 -23 24 -24 27 -7 33 10 4 67 10 127 13 l108 6 -7
-31 c-5 -26 -2 -36 19 -57 27 -27 46 -31 77 -14 40 21 44 86 6 111 -24 15 52
20 142 9 78 -9 112 -19 179 -52 45 -23 82 -45 82 -50 0 -17 65 -49 99 -49 24
0 42 9 65 33 18 17 35 38 37 46 4 11 29 11 145 2 77 -6 152 -11 167 -11 l26 0
-17 -46 c-10 -28 -27 -51 -42 -59 -106 -55 -133 -215 -52 -307 8 -10 11 -18 7
-18 -5 0 2 -11 15 -25 34 -37 101 -59 152 -51 46 7 122 51 113 65 -2 5 3 15
12 22 26 22 53 91 53 138 0 58 -32 123 -79 160 -28 22 -40 41 -48 75 l-10 45
41 5 c86 10 421 46 429 46 5 0 5 -20 1 -45 -5 -36 -3 -50 11 -65 40 -44 121
-8 113 50 -4 24 0 30 21 35 42 11 94 35 88 41 -3 3 -16 0 -28 -7 -43 -22 -89
-28 -121 -14 l-31 12 54 7 c30 3 81 8 114 11 33 3 87 9 120 15 33 5 68 10 78
10 17 0 17 -2 3 -22 -37 -53 -6 -129 60 -147 102 -28 175 79 108 158 l-26 31
52 -26 c40 -20 73 -28 135 -32 l83 -5 -24 -45 c-35 -65 -33 -130 7 -208 45
-86 92 -117 175 -112 79 5 118 33 162 118 40 78 42 128 7 196 -14 27 -25 49
-25 50 0 0 32 -3 71 -7 45 -5 101 -21 153 -43 46 -20 96 -36 112 -35 25 1 23
2 -11 9 -42 9 -141 48 -134 54 8 6 278 -27 274 -34 -3 -4 -25 -13 -50 -19 -25
-6 -45 -13 -45 -16 0 -8 63 7 92 21 15 8 36 14 48 14 33 0 23 29 -12 34 -38 6
-301 36 -318 36 -27 0 3 66 47 104 75 65 92 140 52 224 -62 126 -191 165 -294
87 -64 -48 -101 -163 -75 -231 13 -34 4 -40 -65 -49 -27 -3 -69 -9 -92 -12
l-43 -5 0 34 c0 63 -67 91 -111 47 -21 -21 -21 -40 -4 -83 8 -18 5 -19 -56
-12 -35 4 -102 11 -149 16 -118 11 -150 24 -150 60 0 34 -48 76 -97 86 -59 12
-123 -42 -123 -103 0 -18 -3 -33 -7 -33 -5 0 -69 7 -143 15 -74 8 -156 15
-181 15 l-47 0 12 44 c8 32 23 55 58 85 81 71 89 158 25 255 -42 63 -90 90
-162 89 -82 0 -122 -28 -169 -117 -44 -84 -31 -163 38 -224 20 -17 41 -32 47
-32 8 0 49 -80 49 -96 0 -2 -39 -4 -87 -4 -49 0 -128 -5 -177 -10 -75 -9 -97
-8 -138 6 -73 24 -158 15 -235 -23 -47 -24 -82 -33 -144 -39 -80 -7 -81 -6
-70 14 21 40 13 82 -23 118 -40 40 -83 45 -132 15 -44 -27 -59 -75 -40 -127
l14 -40 -122 1 c-164 2 -176 3 -176 19 0 7 18 25 40 40 92 61 107 189 32 270
-15 16 -21 26 -14 22 6 -4 12 -5 12 -1 0 3 -21 19 -47 35 -67 42 -140 42 -207
-1 -27 -16 -46 -33 -43 -36 4 -3 -6 -21 -20 -40 -56 -73 -34 -194 46 -249 l36
-24 -30 4 c-16 3 -77 8 -135 11 -148 7 -148 7 -143 59 5 37 2 46 -18 60 -33
23 -56 20 -86 -10 -20 -20 -24 -32 -19 -55 7 -35 6 -35 -47 -7 -32 17 -60 22
-117 23 -41 0 -81 -2 -88 -5 -10 -4 -14 10 -15 55 -4 131 -121 232 -238 206
-57 -13 -88 -38 -126 -102 -35 -57 -42 -113 -23 -165 13 -34 4 -40 -65 -49
-27 -3 -69 -9 -92 -12 l-43 -5 0 34 c0 41 -25 68 -63 68 -50 0 -87 -66 -55
-98 22 -22 -2 -26 -91 -14 -48 7 -106 12 -128 12 -22 0 -60 7 -86 16 -41 14
-47 19 -47 44 0 34 -48 76 -97 86 -59 12 -123 -42 -123 -103 0 -18 -3 -33 -7
-33 -5 0 -69 7 -143 15 -74 8 -157 15 -184 15 -40 0 -47 3 -42 16 3 9 9 28 12
42 4 15 28 46 55 70 82 73 90 159 26 256 -42 63 -90 90 -162 89 -82 0 -122
-28 -169 -117 -44 -84 -31 -163 38 -224 20 -17 41 -32 47 -32 8 0 49 -80 49
-96 0 -2 -39 -4 -87 -4 -49 0 -128 -5 -177 -10 -75 -9 -97 -8 -138 6 -73 24
-158 16 -236 -23 -47 -24 -82 -33 -143 -39 -80 -7 -81 -6 -70 14 35 65 -20
152 -97 152 -78 0 -130 -79 -99 -151 l14 -35 -121 1 c-164 2 -176 3 -176 19 0
7 17 25 39 39 84 56 105 175 45 254 -16 21 -28 40 -27 43 1 3 -14 17 -34 30
-52 35 -144 39 -197 8 -59 -34 -106 -119 -106 -189 0 -52 37 -119 82 -148 l33
-21 -30 5 c-16 2 -77 6 -135 9 -114 6 -172 17 -152 30 19 11 14 64 -8 86 -27
27 -56 25 -87 -6 -20 -20 -24 -32 -19 -55 7 -35 6 -35 -47 -7 -32 17 -60 22
-117 23 -41 0 -81 -2 -88 -5 -10 -4 -14 10 -15 55 -2 50 -8 69 -37 113 -53 83
-127 113 -214 88 -57 -17 -80 -37 -120 -107 -28 -49 -35 -123 -15 -161 15 -28
4 -33 -100 -47 -114 -14 -108 -16 -103 19 9 61 -64 94 -108 50 -22 -22 -26
-60 -8 -78 20 -20 -17 -25 -98 -13 -41 6 -96 11 -122 11 -25 0 -66 7 -89 16
-37 14 -43 21 -43 45 0 42 -59 84 -118 84 -37 0 -48 -5 -73 -33 -20 -22 -29
-43 -29 -67 0 -19 -3 -35 -7 -35 -5 0 -69 7 -143 15 -74 8 -157 15 -183 15
-52 0 -50 -5 -31 62 4 11 30 44 59 73 80 78 86 152 21 250 -48 73 -125 105
-205 85z m-2001 -456 c34 -13 32 -13 -34 -7 -101 9 -137 21 -61 21 33 0 76 -6
95 -14z m3950 1 c33 -13 32 -14 -35 -8 -93 8 -128 22 -55 22 30 0 71 -7 90
-14z m3950 0 c33 -13 32 -14 -35 -8 -93 8 -128 22 -55 22 30 0 71 -7 90 -14z
m-6287 -34 c8 -8 -4 -11 -49 -11 -33 0 -86 -5 -118 -11 -84 -15 -100 -7 -36
19 43 17 70 21 123 18 38 -2 74 -9 80 -15z m3950 0 c8 -8 -5 -11 -51 -11 -33
0 -84 -5 -111 -11 -28 -6 -61 -9 -73 -7 -18 3 -11 8 32 26 43 17 69 21 123 18
38 -2 74 -9 80 -15z m3950 0 c8 -8 -3 -11 -43 -11 -29 0 -81 -5 -116 -11 -91
-16 -110 -7 -44 19 43 17 70 21 123 18 38 -2 74 -9 80 -15z m-5558 -17 c55 -8
112 -16 127 -18 14 -2 43 -9 63 -16 20 -7 53 -10 74 -8 l38 3 -15 -43 c-17
-52 -29 -58 -149 -71 -75 -8 -123 -6 -260 9 -92 11 -174 20 -182 20 -29 0 -2
63 47 107 53 48 41 47 257 17z m3950 0 c55 -8 112 -16 127 -18 14 -2 43 -9 63
-16 20 -7 54 -10 76 -8 21 2 39 3 39 2 0 -1 -9 -23 -20 -48 -21 -51 -20 -50
-152 -65 -69 -8 -119 -6 -255 9 -92 11 -174 20 -181 20 -29 0 -1 64 47 107 52
48 40 47 256 17z m-5671 -31 c99 -40 209 -54 266 -35 30 11 60 7 60 -7 0 -4
-56 -14 -124 -22 -123 -14 -124 -14 -172 9 -71 34 -157 26 -267 -24 -75 -35
-91 -38 -187 -42 -112 -4 -317 16 -283 29 29 10 46 37 45 68 -1 28 1 29 64 36
36 4 68 4 71 1 3 -3 0 -19 -7 -36 -10 -25 -10 -34 4 -55 21 -33 59 -42 90 -21
46 29 42 86 -6 102 -38 13 92 31 231 33 121 1 126 0 215 -36z m136 16 c63 -7
124 -15 135 -19 18 -7 18 -9 -8 -19 -48 -19 -133 -13 -215 15 -87 29 -118 49
-62 40 19 -3 87 -11 150 -17z m388 12 c10 -6 9 -10 -7 -14 -27 -7 -63 2 -55
14 7 11 45 11 62 0z m3426 -28 c99 -40 209 -54 266 -35 30 11 60 7 60 -7 0 -4
-56 -14 -124 -22 -123 -14 -124 -14 -172 9 -71 34 -157 26 -267 -24 -75 -35
-91 -38 -187 -42 -123 -5 -319 17 -278 30 28 10 51 51 43 78 -5 15 4 19 60 25
37 4 69 4 72 1 3 -3 0 -19 -6 -37 -14 -39 5 -75 44 -85 30 -7 70 16 80 46 8
26 -18 70 -43 71 -58 4 135 27 237 28 121 1 126 0 215 -36z m136 16 c63 -7
124 -15 135 -19 18 -7 18 -9 -8 -19 -62 -24 -210 -2 -287 44 l-25 15 35 -5
c19 -2 87 -10 150 -16z m388 12 c10 -6 9 -10 -7 -14 -27 -7 -63 2 -55 14 7 11
45 11 62 0z m3550 -11 c84 -9 155 -20 158 -23 12 -12 -47 -27 -104 -27 -50 0
-84 9 -207 54 -11 4 -7 0 9 -9 83 -48 225 -70 290 -45 26 9 56 4 56 -9 0 -4
-56 -14 -124 -22 -123 -14 -124 -14 -172 9 -72 34 -155 26 -276 -27 -92 -41
-94 -41 -213 -40 -135 1 -287 21 -244 32 28 7 53 50 44 77 -5 15 4 18 61 24
37 4 69 5 71 2 3 -3 0 -19 -6 -37 -14 -39 5 -75 44 -85 30 -7 70 16 80 46 8
26 -18 70 -43 71 -9 1 12 7 48 14 89 18 343 16 528 -5z m398 13 c16 -6 16 -7
-1 -13 -24 -8 -66 0 -59 11 6 11 35 12 60 2z m-7841 -31 c-3 -3 -11 0 -18 7
-9 10 -8 11 6 5 10 -3 15 -9 12 -12z m110 9 l40 -9 -35 -2 c-51 -3 -84 0 -94
11 -12 11 34 11 89 0z m535 -13 c21 -13 41 -31 44 -41 4 -17 0 -18 -47 -12
-29 4 -53 8 -54 9 -2 2 -6 17 -9 34 -8 40 9 42 66 10z m3420 13 l45 -8 -40 -3
c-56 -3 -88 0 -99 11 -12 11 31 11 94 0z m533 -13 c20 -13 38 -31 40 -41 5
-17 1 -18 -46 -12 -29 4 -53 8 -54 9 -2 2 -6 17 -9 34 -6 28 -4 32 14 32 11 0
36 -10 55 -22z m3422 13 l40 -9 -40 -2 c-51 -3 -76 0 -95 11 -20 11 40 11 95
0z m528 -13 c20 -13 38 -31 40 -41 5 -17 1 -18 -46 -12 -29 4 -53 8 -53 9 -1
0 -5 16 -9 34 -6 28 -4 32 14 32 11 0 35 -10 54 -22z m-10862 -23 c33 -4 48
-11 51 -23 4 -15 -3 -17 -61 -17 -64 0 -66 1 -69 27 -3 21 1 26 15 23 10 -2
39 -7 64 -10z m942 -7 c3 -13 9 -33 12 -45 11 -35 -21 -29 -66 12 -22 19 -45
36 -52 36 -18 2 43 16 74 18 20 1 28 -5 32 -21z m1811 7 c-7 -17 -25 -18 -104
-7 l-55 7 65 6 c36 3 73 6 82 7 12 1 15 -3 12 -13z m1197 0 c33 -4 48 -11 51
-23 4 -15 -3 -18 -61 -17 -64 0 -66 1 -69 27 -3 21 1 26 15 23 10 -2 39 -7 64
-10z m942 -7 c3 -13 9 -33 12 -45 11 -35 -21 -29 -66 12 -22 19 -45 36 -52 36
-18 2 43 16 74 18 20 1 28 -5 32 -21z m1811 7 c-7 -17 -25 -18 -104 -7 l-55 7
70 6 c39 3 75 6 82 7 7 1 10 -4 7 -13z m1197 0 c33 -4 48 -11 51 -23 4 -15 -4
-17 -56 -18 -61 -1 -76 6 -76 38 0 10 6 15 18 13 9 -2 38 -7 63 -10z m942 -7
c3 -13 9 -33 12 -45 6 -19 3 -23 -13 -23 -12 0 -27 8 -34 19 -7 10 -28 28 -47
39 l-34 20 29 5 c69 10 82 8 87 -15z m1817 13 c0 -19 -23 -23 -93 -15 l-72 9
70 6 c39 3 76 6 83 7 6 1 12 -2 12 -7z m-8443 -7 c-3 -3 -12 -4 -19 -1 -8 3
-5 6 6 6 11 1 17 -2 13 -5z m3950 0 c-3 -3 -12 -4 -19 -1 -8 3 -5 6 6 6 11 1
17 -2 13 -5z m3950 0 c-3 -3 -12 -4 -19 -1 -8 3 -5 6 6 6 11 1 17 -2 13 -5z
m-9454 -21 c-7 -2 -21 -2 -30 0 -10 3 -4 5 12 5 17 0 24 -2 18 -5z m77 -8 c-8
-9 -28 -15 -54 -14 l-41 1 40 13 c57 19 71 19 55 0z m1026 -9 c16 -8 25 -15
19 -16 -5 0 -84 -9 -175 -20 -90 -10 -166 -17 -168 -15 -5 5 56 32 128 56 64
22 151 20 196 -5z m909 -7 l30 -1 -30 -8 c-66 -17 -182 -4 -220 24 -15 10 1
10 86 0 57 -7 118 -14 134 -15z m1938 24 c-7 -2 -21 -2 -30 0 -10 3 -4 5 12 5
17 0 24 -2 18 -5z m77 -8 c-7 -9 -28 -15 -49 -14 l-36 1 35 13 c50 19 66 19
50 0z m1026 -9 c16 -8 25 -15 19 -16 -5 0 -84 -9 -175 -20 -90 -10 -166 -17
-168 -15 -5 5 56 32 128 56 64 22 151 20 196 -5z m914 -7 c23 -1 23 -2 -5 -9
-66 -17 -182 -4 -220 24 -14 10 4 10 91 0 60 -7 120 -14 134 -15z m1933 24
c-7 -2 -21 -2 -30 0 -10 3 -4 5 12 5 17 0 24 -2 18 -5z m77 -8 c-7 -9 -28 -15
-49 -14 l-36 1 35 13 c50 19 66 19 50 0z m1026 -9 c16 -8 25 -16 19 -16 -5 0
-84 -9 -175 -20 -90 -10 -166 -17 -168 -15 -5 5 56 32 128 56 64 22 151 20
196 -5z m914 -7 c23 -1 23 -2 -5 -9 -66 -17 -182 -4 -220 24 -14 10 4 10 91 0
60 -7 120 -14 134 -15z m-8525 -19 c-3 -5 -28 -16 -56 -24 -42 -13 -54 -13
-81 -2 -32 14 -32 14 37 21 39 3 75 8 80 10 19 7 26 5 20 -5z m-1370 -18 c25
-9 31 -32 8 -32 -10 1 -34 9 -53 20 l-35 19 30 0 c17 -1 39 -4 50 -7z m3944 2
c17 -4 31 -13 31 -20 0 -19 -28 -17 -70 6 -28 15 -31 19 -14 20 12 0 36 -3 53
-6z m3979 -8 c2 -3 2 -11 0 -20 -2 -13 -11 -12 -53 9 l-50 25 49 -5 c27 -3 51
-7 54 -9z m-5268 -30 c99 -12 103 -13 75 -25 -45 -19 -123 -15 -185 9 -70 27
-83 40 -34 34 22 -3 86 -11 144 -18z m-3663 -18 c-20 -7 -35 -7 -50 0 -18 9
-14 11 28 11 46 -1 48 -1 22 -11z m3950 0 c-20 -7 -35 -7 -50 0 -18 9 -14 11
28 11 46 -1 48 -1 22 -11z m3950 0 c-20 -7 -35 -7 -50 0 -18 9 -14 11 28 11
46 -1 48 -1 22 -11z"/>
</g>
</svg>
